<svg xmlns="http://www.w3.org/2000/svg" viewBox="0 0 1600 500" style="background-color: #0a0a1a; font-family: monospace;">
<defs>
    <radialGradient id="coreGlow" cx="50%" cy="50%" r="50%">
        <stop offset="0%" stop-color="#e8e0d4" stop-opacity="1"/>
        <stop offset="20%" stop-color="#d64a3a" stop-opacity="0.8"/>
        <stop offset="60%" stop-color="#4a6fa5" stop-opacity="0.2"/>
        <stop offset="100%" stop-color="#0a0a1a" stop-opacity="0"/>
    </radialGradient>
    <filter id="ghost" x="-20%" y="-20%" width="140%" height="140%">
        <feGaussianBlur stdDeviation="4" result="blur"/>
        <feComposite in="SourceGraphic" in2="blur" operator="over"/>
    </filter>
    <filter id="glow">
        <feGaussianBlur stdDeviation="2" result="blur"/>
        <feComposite in="SourceGraphic" in2="blur" operator="over"/>
    </filter>
</defs>
<circle cx="800" cy="250" r="400" fill="url(#coreGlow)" opacity="0.4" />
<!-- ECHO -->
<g id="ECHO" opacity="0.15">
  <ellipse cx="800" cy="250" rx="60" ry="25" fill="none" stroke="#e8e0d4" stroke-width="1" stroke-dasharray="5 2"/>
  <ellipse cx="800" cy="250" rx="120" ry="50" fill="none" stroke="#e8e0d4" stroke-width="1" stroke-dasharray="10 4"/>
  <ellipse cx="800" cy="250" rx="180" ry="75" fill="none" stroke="#e8e0d4" stroke-width="1" stroke-dasharray="15 6"/>
  <ellipse cx="800" cy="250" rx="240" ry="100" fill="none" stroke="#e8e0d4" stroke-width="1" stroke-dasharray="20 8"/>
  <ellipse cx="800" cy="250" rx="300" ry="125" fill="none" stroke="#e8e0d4" stroke-width="1" stroke-dasharray="25 10"/>
  <ellipse cx="800" cy="250" rx="360" ry="150" fill="none" stroke="#e8e0d4" stroke-width="1" stroke-dasharray="30 12"/>
  <ellipse cx="800" cy="250" rx="420" ry="175" fill="none" stroke="#e8e0d4" stroke-width="1" stroke-dasharray="35 14"/>
  <ellipse cx="800" cy="250" rx="480" ry="200" fill="none" stroke="#e8e0d4" stroke-width="1" stroke-dasharray="40 16"/>
  <ellipse cx="800" cy="250" rx="540" ry="225" fill="none" stroke="#e8e0d4" stroke-width="1" stroke-dasharray="45 18"/>
  <ellipse cx="800" cy="250" rx="600" ry="250" fill="none" stroke="#e8e0d4" stroke-width="1" stroke-dasharray="50 20"/>
  <ellipse cx="800" cy="250" rx="660" ry="275" fill="none" stroke="#e8e0d4" stroke-width="1" stroke-dasharray="55 22"/>
  <ellipse cx="800" cy="250" rx="720" ry="300" fill="none" stroke="#e8e0d4" stroke-width="1" stroke-dasharray="60 24"/>
</g>
<!-- OMEN -->
<g id="OMEN" filter="url(#ghost)" opacity="0.3" stroke="#4a6fa5" fill="none">
  <polyline points="820,230 1020,130 1220,330 1470,130" stroke-width="4" />
  <path d="M 780,230 C 580,230 380,80 80,180" stroke-width="4" />
</g>
<!-- WELD -->
<g id="WELD" fill="none">
  <path d="M 800,250 L 720,380 L 880,460 L 650,490" stroke="#d64a3a" stroke-width="12" stroke-linejoin="bevel" />
  <path d="M 800,250 L 720,380 L 880,460 L 650,490" stroke="#e8e0d4" stroke-width="2" stroke-linejoin="bevel" />
  <line x1="799.4415414172348" y1="279.5281280516317" x2="773.8917919160984" y2="263.80520528170166" stroke="#4a6fa5" stroke-width="3" />
  <line x1="786.1082080839016" y1="301.19479471829834" x2="760.5584585827652" y2="285.4718719483683" stroke="#4a6fa5" stroke-width="3" />
  <line x1="772.7748747505682" y1="322.861461384965" x2="747.2251252494318" y2="307.138538615035" stroke="#4a6fa5" stroke-width="3" />
  <line x1="759.4415414172348" y1="344.52812805163165" x2="733.8917919160984" y2="328.8052052817016" stroke="#4a6fa5" stroke-width="3" />
  <line x1="746.1082080839016" y1="366.1947947182984" x2="720.5584585827652" y2="350.47187194836835" stroke="#4a6fa5" stroke-width="3" />
  <line x1="753.374870599166" y1="379.91692546833457" x2="739.9584627341673" y2="406.74974119833206" stroke="#4a6fa5" stroke-width="3" />
  <line x1="780.0415372658327" y1="393.25025880166794" x2="766.625129400834" y2="420.08307453166543" stroke="#4a6fa5" stroke-width="3" />
  <line x1="806.7082039324994" y1="406.58359213500125" x2="793.2917960675006" y2="433.41640786499875" stroke="#4a6fa5" stroke-width="3" />
  <line x1="833.374870599166" y1="419.91692546833457" x2="819.9584627341673" y2="446.74974119833206" stroke="#4a6fa5" stroke-width="3" />
  <line x1="860.0415372658327" y1="433.25025880166794" x2="846.625129400834" y2="460.08307453166543" stroke="#4a6fa5" stroke-width="3" />
  <line x1="843.6067544276832" y1="479.8740061677933" x2="839.7265789056501" y2="450.1259938322067" stroke="#4a6fa5" stroke-width="3" />
  <line x1="805.2734210943499" y1="484.8740061677933" x2="801.3932455723168" y2="455.1259938322067" stroke="#4a6fa5" stroke-width="3" />
  <line x1="766.9400877610166" y1="489.8740061677933" x2="763.0599122389834" y2="460.1259938322067" stroke="#4a6fa5" stroke-width="3" />
  <line x1="728.6067544276833" y1="494.8740061677933" x2="724.7265789056502" y2="465.1259938322067" stroke="#4a6fa5" stroke-width="3" />
  <line x1="690.2734210943498" y1="499.8740061677933" x2="686.3932455723167" y2="470.1259938322067" stroke="#4a6fa5" stroke-width="3" />
</g>
<!-- EDGE -->
<g id="EDGE" fill="none">
  <polyline points="800,250 1000,150 1200,350 1450,150 1550,180" stroke="#d64a3a" stroke-width="3" stroke-linejoin="miter" stroke-miterlimit="10"/>
  <polygon points="800,250 920,170 1000,150 880,230" stroke="#e8e0d4" stroke-width="1" fill="#d64a3a" fill-opacity="0.1" />
  <line x1="800" y1="250" x2="1000" y2="150" stroke="#e8e0d4" stroke-width="1" />
  <polygon points="1000,150 1120,220 1200,350 1080,280" stroke="#e8e0d4" stroke-width="1" fill="#d64a3a" fill-opacity="0.1" />
  <line x1="1000" y1="150" x2="1200" y2="350" stroke="#e8e0d4" stroke-width="1" />
  <polygon points="1200,350 1345,220 1450,150 1305,280" stroke="#e8e0d4" stroke-width="1" fill="#d64a3a" fill-opacity="0.1" />
  <line x1="1200" y1="350" x2="1450" y2="150" stroke="#e8e0d4" stroke-width="1" />
</g>
<!-- MEND -->
<g id="MEND" fill="none">
  <path id="mendPath" d="M 800,250 C 950,400 700,450 820,350" stroke="#d64a3a" stroke-width="5" />
  <path d="M 800,250 C 950,400 700,450 820,350" stroke="#e8e0d4" stroke-width="1" stroke-dasharray="2 4" />
  <path d="M 840.1600000000002,319.6000000000001 L 856.1600000000002,335.6000000000001 M 840.1600000000002,335.6000000000001 L 856.1600000000002,319.6000000000001" stroke="#e8e0d4" stroke-width="2" />
  <path d="M 829.2800000000001,370.79999999999995 L 845.2800000000001,386.79999999999995 M 829.2800000000001,386.79999999999995 L 845.2800000000001,370.79999999999995" stroke="#e8e0d4" stroke-width="2" />
  <path d="M 796.32,393.20000000000005 L 812.32,409.20000000000005 M 796.32,409.20000000000005 L 812.32,393.20000000000005" stroke="#e8e0d4" stroke-width="2" />
  <path d="M 778.24,384.4 L 794.24,400.4 M 778.24,400.4 L 794.24,384.4" stroke="#e8e0d4" stroke-width="2" />
  <path d="M 786.33,367.55 L 802.33,383.55 M 786.33,383.55 L 802.33,367.55" stroke="#e8e0d4" stroke-width="2" />
</g>
<!-- DART -->
<g id="DART" fill="none">
  <path d="M 800,242 Q 1200,212 1550,252" stroke="#d64a3a" stroke-width="1" stroke-dasharray="12 6" opacity="0.6" />
  <path d="M 800,246 Q 1200,216 1550,256" stroke="#d64a3a" stroke-width="2" stroke-dasharray="8 4" opacity="0.8" />
  <path d="M 800,250 Q 1200,220 1550,260" stroke="#d64a3a" stroke-width="3" stroke-dasharray="none" opacity="1" />
  <path d="M 800,254 Q 1200,224 1550,264" stroke="#d64a3a" stroke-width="2" stroke-dasharray="8 4" opacity="0.8" />
  <path d="M 800,258 Q 1200,228 1550,268" stroke="#d64a3a" stroke-width="1" stroke-dasharray="12 6" opacity="0.6" />
  <polygon points="1550,260 1530,255 1535,260 1530,265" fill="#e8e0d4" />
</g>
<!-- HUNT -->
<g id="HUNT" fill="none">
  <path id="huntPath" d="M 800,250 C 600,250 400,100 100,200" stroke="#d64a3a" stroke-width="4" filter="url(#glow)"/>
  <path d="M 800,250 C 600,250 400,100 100,200" stroke="#e8e0d4" stroke-width="1" />
  <path d="M 80,180 A 28 28 0 0 0 80,220" stroke="#4a6fa5" stroke-width="2" opacity="0.8" />
  <path d="M 60,160 A 56 56 0 0 0 60,240" stroke="#4a6fa5" stroke-width="2" opacity="0.6" />
  <path d="M 40,140 A 84 84 0 0 0 40,260" stroke="#4a6fa5" stroke-width="2" opacity="0.3999999999999999" />
  <path d="M 20,120 A 112 112 0 0 0 20,280" stroke="#4a6fa5" stroke-width="2" opacity="0.19999999999999996" />
</g>
<!-- HELM -->
<g id="HELM" fill="none">
  <path d="M 800,250 C 750,150 850,100 800,40" stroke="#d64a3a" stroke-width="6" />
  <path d="M 800,250 C 750,150 850,100 800,40" stroke="#e8e0d4" stroke-width="2" />
  <path d="M 775,170 L 730,170 L 730,120 M 825,130 L 870,130 L 870,80" stroke="#4a6fa5" stroke-width="1.5" />
  <polygon points="800,20 795,45 800,40 805,45" fill="#e8e0d4" />
</g>
<!-- MOLT -->
<g id="MOLT" fill="none">
  <path d="M 800,250 Q 600,400 450,420" stroke="#e8e0d4" stroke-width="3" filter="url(#glow)" />
  <path d="M 800,250 Q 620,380 480,360" stroke="#d64a3a" stroke-width="3" stroke-dasharray="8 6" opacity="0.6" />
  <path d="M 600,395 L 620,380 M 520,412 L 530,370" stroke="#d64a3a" stroke-width="1" opacity="0.5" />
</g>
<!-- CALL -->
<g id="CALL" fill="none" stroke="#4a6fa5" stroke-width="1.5" opacity="0.7">
  <path d="M 200,250 L 200,287.4830246114244 L 210,293.79671857309455 L 220,299.08493113161376 L 230,302.5976791006866 L 240,303.7445979189612 L 250,302.1823527023674 L 260,297.8763315929396 L 270,291.1271991015274 L 280,282.55688259553295 L 290,273.05343357922084 L 300,263.6793666733189 L 310,255.55289525108006 L 320,249.71533578118056 L 330,247.0003231838268 L 340,247.9210126814735 L 350,252.59000038171934 L 360,260.6833749519843 L 370,271.45545066165676 L 380,283.80486345076974 L 390,296.386514436239 L 400,307.75806138308224 L 410,316.5450059764653 L 420,321.6055089391846 L 430,322.17530276292393 L 440,317.97463419059284 L 450,309.26295280707023 L 460,296.8326951462348 L 470,281.9403886243873 L 480,266.18064080007684 L 490,251.31553022984434 L 500,239.07763734210275 L 510,230.96872791414262 L 520,228.0774163996131 L 530,230.9377547495764 L 540,239.4466886743295 L 550,252.85208303419734 L 560,269.8152017454172 L 570,288.54300095078827 L 580,306.9773322517615 L 590,323.02112851803133 L 600,334.77671504365765 L 610,340.7691908085493 L 620,340.12869532507693 L 630,332.70930522777155 L 640,319.12892467728506 L 650,300.72315525814787 L 660,279.41581358683334 L 670,257.51841896492266 L 680,237.47948368548123 L 690,221.6107921119132 L 700,211.82126087013108 L 710,209.3889603434584 L 720,214.7983579355231 L 730,227.66312874001807 L 740,246.74565732638064 L 750,270.073618742667 L 760,295.14296943883124 L 770,319.1865576587726 L 780,339.479559137409 L 790,353.64802462553496 L 800,359.94562766240784 L 810,355.5536983439557 L 820,343.03552901526285 L 830,323.9634457586212 L 840,300.58883991139805 L 850,275.5776078921795 L 860,251.7064705857689 L 870,231.55472645245337 L 880,217.22565481771278 L 890,210.12765020535232 L 900,210.8377863134997 L 910,219.06078079076957 L 920,233.68540210081912 L 930,252.92947776335464 L 940,274.55504414659276 L 950,296.1278658658926 L 960,315.2913075994682 L 970,330.0237597364003 L 980,338.8514998299623 L 990,340.9946234665433 L 1000,336.4317745977258 L 1010,325.8788751383489 L 1020,310.68679579496137 L 1030,292.6718219423691 L 1040,273.89987011575937 L 1050,256.4499531777117 L 1060,242.1839358168073 L 1070,232.54807836454916 L 1080,228.42749962095797 L 1090,230.06807477271764 L 1100,237.07223760080555 L 1110,248.46663146550702 L 1120,262.8315322871515 L 1130,278.4753442397239 L 1140,293.6329546206317 L 1150,306.66477603263104 L 1160,316.23404363431143 L 1170,321.4432016102158 L 1180,321.9155505370668 L 1190,317.8150565996342 L 1200,309.80452641917395 L 1210,298.94936913693306 L 1220,286.58010214694536 L 1230,274.1309612542258 L 1240,262.974024342124 L 1250,254.26798847486802 L 1260,248.83826737086844 L 1270,247.10076625865213 L 1280,249.0361136257728 L 1290,254.21498297851346 L 1300,261.8691642268752 L 1310,270.99793973737087 L 1320,280.4956539029516 L 1330,289.28451660332 L 1340,296.4368003098166 L 1350,301.272588113353 L 1360,303.4227943600907 L 1370,302.8518223816648 L 1380,299.8393436482738 L 1390,294.92564146313526 L 1400,288.8291636732962" />
  <path d="M 200,250 L 200,276.2584876942878 L 210,273.4301340128121 L 220,271.32503130381195 L 230,270.1749221301363 L 240,270.1064175337662 L 250,271.12705891905307 L 260,273.12448784886936 L 270,275.87881514758243 L 280,279.0868276444525 L 290,282.39536773130317 L 300,285.4402111088937 L 310,288.67477910445547 L 320,291.3567490820573 L 330,292.9998726851591 L 340,293.2089947782168 L 350,291.7471426935489 L 360,288.58516668800695 L 370,283.92587402031984 L 380,278.1976962601617 L 390,272.0168263002938 L 400,266.1209693084589 L 410,261.2818262071763 L 420,258.20663817471285 L 430,257.44111712680814 L 440,259.28656316876754 L 450,263.7428039960721 L 460,270.4858679608237 L 470,278.88530866258606 L 480,288.06129286662184 L 490,296.97652292519416 L 500,304.55341759473833 L 510,309.8033222482663 L 520,311.95235913869965 L 530,310.548190438943 L 540,305.533566390237 L 550,297.27594716005626 L 560,286.5473703065175 L 570,274.4545432424708 L 580,262.3251961109149 L 590,251.56230487791152 L 600,243.4821899708949 L 610,239.1551340467128 L 620,239.26765800559306 L 630,244.02380754294958 L 640,253.09886428436653 L 650,265.65320020589763 L 660,280.4071602273586 L 670,295.7706613231139 L 680,310.0144821043662 L 690,321.4647998045834 L 700,328.6990993784778 L 710,330.72060595047355 L 720,327.09007482434447 L 730,317.9980024216307 L 740,304.2666824915601 L 750,287.2793462553775 L 760,268.8420225187559 L 770,250.99176900584368 L 780,235.77160987218303 L 790,224.99704489991692 L 800,220.04077925319413 L 810,223.57382022413432 L 820,233.12742714249686 L 830,247.4556310617999 L 840,264.8292758547593 L 850,283.243087545735 L 860,300.646629572547 L 870,315.1725958632874 L 880,325.3370270760963 L 890,330.18999773981733 L 900,329.4015812046431 L 910,323.2756774094535 L 920,312.69265734059826 L 930,298.9897693301839 L 940,283.7949692311626 L 950,268.8345544005359 L 960,255.7372260253655 L 970,245.85679891007607 L 980,240.13285495389658 L 990,239.00361373560204 L 1000,242.3788169348494 L 1010,249.67328592549808 L 1020,259.8948579274392 L 1030,271.7744313707428 L 1040,283.9215120684403 L 1050,294.9863934323654 L 1060,303.8101144857138 L 1070,309.5455361126391 L 1080,311.7369233101797 L 1090,310.3507780793285 L 1100,305.75665743951674 L 1110,298.6626058673529 L 1120,290.0149394991617 L 1130,280.87586607505233 L 1140,272.2944169535559 L 1150,265.18623553742725 L 1160,260.2359761994665 L 1170,257.83270611546595 L 1180,258.04423543296497 L 1190,260.63131247335804 L 1200,265.0977367904131 L 1210,270.76825606149407 L 1220,276.88310950934164 L 1230,282.6965853696801 L 1240,287.5671002923893 L 1250,291.0280049393422 L 1260,292.8313016708189 L 1270,292.96030420113703 L 1280,291.6114573903352 L 1290,289.1495221689146 L 1300,286.04361192437494 L 1310,283.10415871125144 L 1320,279.82298074894584 L 1330,276.56129014691857 L 1340,273.6781537269936 L 1350,271.4909647546588 L 1360,270.24050234996224 L 1370,270.0644250514501 L 1380,270.98211652351193 L 1390,272.89255168422125 L 1400,275.58541816335185" opacity="0.4"/>
</g>
<!-- HEAD CONSTELLATION -->
<g id="HEAD" fill="#e8e0d4">
  <g stroke="#d64a3a" opacity="0.4" stroke-width="0.5">
    <line x1="837.518213974494" y1="351.89243203143644" x2="816.3569504342339" y2="361.36040512286667" />
    <line x1="837.518213974494" y1="351.89243203143644" x2="830.7439535405747" y2="329.1456367339681" />
    <line x1="793.3873078862488" y1="234.49111303744482" x2="799.7356427943082" y2="225.250646536408" />
    <line x1="793.3873078862488" y1="234.49111303744482" x2="792.3685542763784" y2="214.88293028759023" />
    <line x1="793.3873078862488" y1="234.49111303744482" x2="785.5583027625624" y2="234.8654236505413" />
    <line x1="793.3873078862488" y1="234.49111303744482" x2="784.0420102346994" y2="252.85919936374484" />
    <line x1="793.3873078862488" y1="234.49111303744482" x2="793.8280590654936" y2="245.2275100658824" />
    <line x1="793.3873078862488" y1="234.49111303744482" x2="805.1879211573756" y2="237.53898491324645" />
    <line x1="793.3873078862488" y1="234.49111303744482" x2="808.4446031265082" y2="246.79182213402788" />
    <line x1="793.3873078862488" y1="234.49111303744482" x2="784.8829428839917" y2="223.06959142487457" />
    <line x1="793.3873078862488" y1="234.49111303744482" x2="776.7274371207039" y2="235.2863802926473" />
    <line x1="793.3873078862488" y1="234.49111303744482" x2="809.0831798785184" y2="221.89090708962814" />
    <line x1="793.3873078862488" y1="234.49111303744482" x2="779.4606953659063" y2="242.22796126535485" />
    <line x1="785.6765717857936" y1="326.24036024672694" x2="778.3734550061985" y2="312.5214912432595" />
    <line x1="785.6765717857936" y1="326.24036024672694" x2="800.0343647213701" y2="327.4236652043629" />
    <line x1="785.6765717857936" y1="326.24036024672694" x2="780.5869538658781" y2="326.68486157323946" />
    <line x1="785.6765717857936" y1="326.24036024672694" x2="798.724192955589" y2="310.95634900802366" />
    <line x1="785.6765717857936" y1="326.24036024672694" x2="779.8109604879363" y2="304.8545484805652" />
    <line x1="785.6765717857936" y1="326.24036024672694" x2="791.0739521012572" y2="321.5993452297688" />
    <line x1="785.6765717857936" y1="326.24036024672694" x2="769.0779882109472" y2="315.9880280328139" />
    <line x1="785.6765717857936" y1="326.24036024672694" x2="780.032395903108" y2="305.4730595159146" />
    <line x1="755.9589631899031" y1="181.03544175818504" x2="753.3169247506925" y2="199.24289347574728" />
    <line x1="755.9589631899031" y1="181.03544175818504" x2="746.0813393648615" y2="166.09542349149046" />
    <line x1="755.9589631899031" y1="181.03544175818504" x2="772.4066679955772" y2="179.9082076795349" />
    <line x1="755.9589631899031" y1="181.03544175818504" x2="774.9692694643419" y2="171.2313904303302" />
    <line x1="755.9589631899031" y1="181.03544175818504" x2="773.6002023424443" y2="174.74234710231534" />
    <line x1="799.7356427943082" y1="225.250646536408" x2="792.3685542763784" y2="214.88293028759023" />
    <line x1="799.7356427943082" y1="225.250646536408" x2="817.8738796129753" y2="221.61536488733964" />
    <line x1="799.7356427943082" y1="225.250646536408" x2="785.5583027625624" y2="234.8654236505413" />
    <line x1="799.7356427943082" y1="225.250646536408" x2="793.8280590654936" y2="245.2275100658824" />
    <line x1="799.7356427943082" y1="225.250646536408" x2="805.1879211573756" y2="237.53898491324645" />
    <line x1="799.7356427943082" y1="225.250646536408" x2="808.4446031265082" y2="246.79182213402788" />
    <line x1="799.7356427943082" y1="225.250646536408" x2="784.8829428839917" y2="223.06959142487457" />
    <line x1="799.7356427943082" y1="225.250646536408" x2="809.0831798785184" y2="221.89090708962814" />
    <line x1="729.816898688487" y1="318.09554168273195" x2="713.8423294271678" y2="306.30549570972346" />
    <line x1="729.816898688487" y1="318.09554168273195" x2="740.9976265699501" y2="318.29434647947323" />
    <line x1="729.816898688487" y1="318.09554168273195" x2="726.1638006881637" y2="302.1712607999367" />
    <line x1="792.3685542763784" y1="214.88293028759023" x2="785.5583027625624" y2="234.8654236505413" />
    <line x1="792.3685542763784" y1="214.88293028759023" x2="777.4530899629581" y2="201.46982100709118" />
    <line x1="792.3685542763784" y1="214.88293028759023" x2="784.8829428839917" y2="223.06959142487457" />
    <line x1="792.3685542763784" y1="214.88293028759023" x2="809.0831798785184" y2="221.89090708962814" />
    <line x1="792.3685542763784" y1="214.88293028759023" x2="812.4913108438385" y2="202.9800042546225" />
    <line x1="792.3685542763784" y1="214.88293028759023" x2="787.7914054890648" y2="196.99685907768864" />
    <line x1="832.4092538411753" y1="292.2440528021131" x2="830.5534408042049" y2="307.4313379676489" />
    <line x1="832.4092538411753" y1="292.2440528021131" x2="845.6265381630392" y2="280.50229651640865" />
    <line x1="832.4092538411753" y1="292.2440528021131" x2="814.566257512949" y2="291.9305969486837" />
    <line x1="832.4092538411753" y1="292.2440528021131" x2="821.2173300505667" y2="284.08084541562" />
    <line x1="832.4092538411753" y1="292.2440528021131" x2="839.4051449807957" y2="299.4465410255412" />
    <line x1="832.4092538411753" y1="292.2440528021131" x2="829.8259184195745" y2="304.7923558262257" />
    <line x1="832.4092538411753" y1="292.2440528021131" x2="824.0609828367138" y2="292.876935881979" />
    <line x1="832.4092538411753" y1="292.2440528021131" x2="815.3198201473748" y2="286.952954815591" />
    <line x1="832.4092538411753" y1="292.2440528021131" x2="840.2259606519082" y2="291.71166176669476" />
    <line x1="824.1485263439696" y1="318.79080827285105" x2="820.5771899444366" y2="330.00041465455274" />
    <line x1="824.1485263439696" y1="318.79080827285105" x2="830.5534408042049" y2="307.4313379676489" />
    <line x1="824.1485263439696" y1="318.79080827285105" x2="810.7768253068207" y2="326.18557960693875" />
    <line x1="824.1485263439696" y1="318.79080827285105" x2="830.7439535405747" y2="329.1456367339681" />
    <line x1="824.1485263439696" y1="318.79080827285105" x2="826.2955080911695" y2="323.81773979110534" />
    <line x1="824.1485263439696" y1="318.79080827285105" x2="839.4051449807957" y2="299.4465410255412" />
    <line x1="824.1485263439696" y1="318.79080827285105" x2="829.8259184195745" y2="304.7923558262257" />
    <line x1="824.1485263439696" y1="318.79080827285105" x2="818.3395011328782" y2="328.22793456117154" />
    <line x1="824.1485263439696" y1="318.79080827285105" x2="816.8569992339061" y2="331.6784947482746" />
    <line x1="817.8738796129753" y1="221.61536488733964" x2="827.0479219966624" y2="241.7259894730329" />
    <line x1="817.8738796129753" y1="221.61536488733964" x2="805.1879211573756" y2="237.53898491324645" />
    <line x1="817.8738796129753" y1="221.61536488733964" x2="809.0831798785184" y2="221.89090708962814" />
    <line x1="817.8738796129753" y1="221.61536488733964" x2="812.4913108438385" y2="202.9800042546225" />
    <line x1="817.8738796129753" y1="221.61536488733964" x2="816.0968551063315" y2="245.90686540811762" />
    <line x1="817.8738796129753" y1="221.61536488733964" x2="828.2733931337663" y2="231.47260975726738" />
    <line x1="817.8738796129753" y1="221.61536488733964" x2="840.3798866556481" y2="230.6201929159137" />
    <line x1="852.4338339757728" y1="249.0410547895104" x2="844.7784716363386" y2="236.22443174449265" />
    <line x1="852.4338339757728" y1="249.0410547895104" x2="835.9739590696915" y2="265.2640464554148" />
    <line x1="852.4338339757728" y1="249.0410547895104" x2="845.7439380340437" y2="249.21408875114489" />
    <line x1="852.4338339757728" y1="249.0410547895104" x2="852.7622017878069" y2="235.1985068077917" />
    <line x1="852.4338339757728" y1="249.0410547895104" x2="832.2101522292637" y2="255.2464657278639" />
    <line x1="852.4338339757728" y1="249.0410547895104" x2="858.1486659986156" y2="227.74364325641125" />
    <line x1="852.4338339757728" y1="249.0410547895104" x2="840.3798866556481" y2="230.6201929159137" />
    <line x1="863.3124371259293" y1="181.27481672932942" x2="873.1332836760093" y2="190.8447497259012" />
    <line x1="863.3124371259293" y1="181.27481672932942" x2="868.1882724770123" y2="200.28456816499303" />
    <line x1="861.3511840209478" y1="218.09300418844785" x2="844.7784716363386" y2="236.22443174449265" />
    <line x1="861.3511840209478" y1="218.09300418844785" x2="884.0043571851802" y2="213.6612419554679" />
    <line x1="861.3511840209478" y1="218.09300418844785" x2="842.2100831604988" y2="213.18527971234394" />
    <line x1="861.3511840209478" y1="218.09300418844785" x2="852.7622017878069" y2="235.1985068077917" />
    <line x1="861.3511840209478" y1="218.09300418844785" x2="847.1412417719434" y2="222.28364520505747" />
    <line x1="861.3511840209478" y1="218.09300418844785" x2="844.1745327856055" y2="222.89939787203892" />
    <line x1="861.3511840209478" y1="218.09300418844785" x2="860.9746334808682" y2="208.58387902359604" />
    <line x1="861.3511840209478" y1="218.09300418844785" x2="862.9332768351828" y2="221.22368601541362" />
    <line x1="861.3511840209478" y1="218.09300418844785" x2="872.1414223113408" y2="219.6680577378416" />
    <line x1="861.3511840209478" y1="218.09300418844785" x2="869.2538839281978" y2="226.20449932926707" />
    <line x1="861.3511840209478" y1="218.09300418844785" x2="858.1486659986156" y2="227.74364325641125" />
    <line x1="861.3511840209478" y1="218.09300418844785" x2="868.1882724770123" y2="200.28456816499303" />
    <line x1="861.3511840209478" y1="218.09300418844785" x2="840.3798866556481" y2="230.6201929159137" />
    <line x1="713.8423294271678" y1="306.30549570972346" x2="701.0158862357723" y2="305.6476620219355" />
    <line x1="713.8423294271678" y1="306.30549570972346" x2="726.1638006881637" y2="302.1712607999367" />
    <line x1="827.0479219966624" y1="241.7259894730329" x2="826.9768217294252" y2="265.18342029204706" />
    <line x1="827.0479219966624" y1="241.7259894730329" x2="805.1879211573756" y2="237.53898491324645" />
    <line x1="827.0479219966624" y1="241.7259894730329" x2="844.7784716363386" y2="236.22443174449265" />
    <line x1="827.0479219966624" y1="241.7259894730329" x2="808.4446031265082" y2="246.79182213402788" />
    <line x1="827.0479219966624" y1="241.7259894730329" x2="828.0876970307158" y2="266.63031202379847" />
    <line x1="827.0479219966624" y1="241.7259894730329" x2="818.1400492698617" y2="256.8482213116328" />
    <line x1="827.0479219966624" y1="241.7259894730329" x2="845.7439380340437" y2="249.21408875114489" />
    <line x1="827.0479219966624" y1="241.7259894730329" x2="832.2101522292637" y2="255.2464657278639" />
    <line x1="827.0479219966624" y1="241.7259894730329" x2="816.0968551063315" y2="245.90686540811762" />
    <line x1="827.0479219966624" y1="241.7259894730329" x2="819.7087493084085" y2="249.64566673406551" />
    <line x1="827.0479219966624" y1="241.7259894730329" x2="828.2733931337663" y2="231.47260975726738" />
    <line x1="827.0479219966624" y1="241.7259894730329" x2="840.3798866556481" y2="230.6201929159137" />
    <line x1="778.3734550061985" y1="312.5214912432595" x2="780.5869538658781" y2="326.68486157323946" />
    <line x1="778.3734550061985" y1="312.5214912432595" x2="798.724192955589" y2="310.95634900802366" />
    <line x1="778.3734550061985" y1="312.5214912432595" x2="779.8109604879363" y2="304.8545484805652" />
    <line x1="778.3734550061985" y1="312.5214912432595" x2="768.0038838592142" y2="305.83725876996834" />
    <line x1="778.3734550061985" y1="312.5214912432595" x2="791.0739521012572" y2="321.5993452297688" />
    <line x1="778.3734550061985" y1="312.5214912432595" x2="769.0779882109472" y2="315.9880280328139" />
    <line x1="778.3734550061985" y1="312.5214912432595" x2="780.032395903108" y2="305.4730595159146" />
    <line x1="778.3734550061985" y1="312.5214912432595" x2="794.7664141827307" y2="302.85390998795526" />
    <line x1="757.2895930685215" y1="276.48483177973856" x2="768.7676682163146" y2="256.39467458423275" />
    <line x1="757.2895930685215" y1="276.48483177973856" x2="747.5989011567058" y2="256.59345078526474" />
    <line x1="757.2895930685215" y1="276.48483177973856" x2="770.2449223276554" y2="264.994052429639" />
    <line x1="757.2895930685215" y1="276.48483177973856" x2="746.9436393115026" y2="274.9726221894615" />
    <line x1="757.2895930685215" y1="276.48483177973856" x2="761.7076073398453" y2="288.39726851963087" />
    <line x1="757.2895930685215" y1="276.48483177973856" x2="753.6670784334066" y2="277.1580789309427" />
    <line x1="757.2895930685215" y1="276.48483177973856" x2="759.5345945803674" y2="288.2138335078161" />
    <line x1="757.2895930685215" y1="276.48483177973856" x2="773.4440302254087" y2="280.0786156685763" />
    <line x1="757.2895930685215" y1="276.48483177973856" x2="741.7041886162892" y2="267.89570592344865" />
    <line x1="757.2895930685215" y1="276.48483177973856" x2="766.7011752552651" y2="274.6403734879845" />
    <line x1="757.2895930685215" y1="276.48483177973856" x2="746.5795227453143" y2="287.370233647841" />
    <line x1="820.5771899444366" y1="330.00041465455274" x2="830.5534408042049" y2="307.4313379676489" />
    <line x1="820.5771899444366" y1="330.00041465455274" x2="810.7768253068207" y2="326.18557960693875" />
    <line x1="820.5771899444366" y1="330.00041465455274" x2="800.0343647213701" y2="327.4236652043629" />
    <line x1="820.5771899444366" y1="330.00041465455274" x2="830.7439535405747" y2="329.1456367339681" />
    <line x1="820.5771899444366" y1="330.00041465455274" x2="826.2955080911695" y2="323.81773979110534" />
    <line x1="820.5771899444366" y1="330.00041465455274" x2="818.3395011328782" y2="328.22793456117154" />
    <line x1="820.5771899444366" y1="330.00041465455274" x2="816.8569992339061" y2="331.6784947482746" />
    <line x1="751.2180107149421" y1="242.201090787132" x2="766.8159444650265" y2="239.93116883522978" />
    <line x1="751.2180107149421" y1="242.201090787132" x2="768.7676682163146" y2="256.39467458423275" />
    <line x1="751.2180107149421" y1="242.201090787132" x2="747.5989011567058" y2="256.59345078526474" />
    <line x1="751.2180107149421" y1="242.201090787132" x2="752.863946987106" y2="236.882121688833" />
    <line x1="751.2180107149421" y1="242.201090787132" x2="744.2575976398058" y2="222.0296547969236" />
    <line x1="869.0973395551555" y1="316.8986102307588" x2="868.1400206259036" y2="323.0863738103212" />
    <line x1="869.0973395551555" y1="316.8986102307588" x2="871.2588267305439" y2="298.94353303456785" />
    <line x1="691.9919182913202" y1="286.3271301323424" x2="701.0158862357723" y2="305.6476620219355" />
    <line x1="691.9919182913202" y1="286.3271301323424" x2="699.5551349684483" y2="276.3882113287823" />
    <line x1="696.8696256900615" y1="254.9604462435701" x2="697.2946216905486" y2="247.2020643799418" />
    <line x1="696.8696256900615" y1="254.9604462435701" x2="699.5551349684483" y2="276.3882113287823" />
    <line x1="785.5583027625624" y1="234.8654236505413" x2="784.0420102346994" y2="252.85919936374484" />
    <line x1="785.5583027625624" y1="234.8654236505413" x2="766.8159444650265" y2="239.93116883522978" />
    <line x1="785.5583027625624" y1="234.8654236505413" x2="793.8280590654936" y2="245.2275100658824" />
    <line x1="785.5583027625624" y1="234.8654236505413" x2="805.1879211573756" y2="237.53898491324645" />
    <line x1="785.5583027625624" y1="234.8654236505413" x2="784.8829428839917" y2="223.06959142487457" />
    <line x1="785.5583027625624" y1="234.8654236505413" x2="776.7274371207039" y2="235.2863802926473" />
    <line x1="785.5583027625624" y1="234.8654236505413" x2="779.4606953659063" y2="242.22796126535485" />
    <line x1="784.0420102346994" y1="252.85919936374484" x2="766.8159444650265" y2="239.93116883522978" />
    <line x1="784.0420102346994" y1="252.85919936374484" x2="793.8280590654936" y2="245.2275100658824" />
    <line x1="784.0420102346994" y1="252.85919936374484" x2="805.2516725624256" y2="259.05854615047065" />
    <line x1="784.0420102346994" y1="252.85919936374484" x2="768.7676682163146" y2="256.39467458423275" />
    <line x1="784.0420102346994" y1="252.85919936374484" x2="776.7274371207039" y2="235.2863802926473" />
    <line x1="784.0420102346994" y1="252.85919936374484" x2="770.2449223276554" y2="264.994052429639" />
    <line x1="784.0420102346994" y1="252.85919936374484" x2="802.426798883234" y2="262.6495191065693" />
    <line x1="784.0420102346994" y1="252.85919936374484" x2="796.6222436327369" y2="267.1783027473474" />
    <line x1="784.0420102346994" y1="252.85919936374484" x2="804.3114058697299" y2="266.3016073861358" />
    <line x1="784.0420102346994" y1="252.85919936374484" x2="779.4606953659063" y2="242.22796126535485" />
    <line x1="784.0420102346994" y1="252.85919936374484" x2="800.2987302503367" y2="271.26414965265457" />
    <line x1="766.8159444650265" y1="239.93116883522978" x2="768.7676682163146" y2="256.39467458423275" />
    <line x1="766.8159444650265" y1="239.93116883522978" x2="784.8829428839917" y2="223.06959142487457" />
    <line x1="766.8159444650265" y1="239.93116883522978" x2="776.7274371207039" y2="235.2863802926473" />
    <line x1="766.8159444650265" y1="239.93116883522978" x2="752.863946987106" y2="236.882121688833" />
    <line x1="766.8159444650265" y1="239.93116883522978" x2="779.4606953659063" y2="242.22796126535485" />
    <line x1="766.8159444650265" y1="239.93116883522978" x2="763.264591017871" y2="219.68925837641038" />
    <line x1="814.077813094866" y1="189.80270150982886" x2="828.7048330745137" y2="189.02807019224215" />
    <line x1="814.077813094866" y1="189.80270150982886" x2="812.4913108438385" y2="202.9800042546225" />
    <line x1="735.9036886206159" y1="211.74334586036673" x2="753.3169247506925" y2="199.24289347574728" />
    <line x1="735.9036886206159" y1="211.74334586036673" x2="740.523321267263" y2="211.28653071657126" />
    <line x1="735.9036886206159" y1="211.74334586036673" x2="742.5066498886067" y2="213.75092045536198" />
    <line x1="735.9036886206159" y1="211.74334586036673" x2="744.2575976398058" y2="222.0296547969236" />
    <line x1="753.3169247506925" y1="199.24289347574728" x2="740.523321267263" y2="211.28653071657126" />
    <line x1="753.3169247506925" y1="199.24289347574728" x2="777.4530899629581" y2="201.46982100709118" />
    <line x1="753.3169247506925" y1="199.24289347574728" x2="742.5066498886067" y2="213.75092045536198" />
    <line x1="753.3169247506925" y1="199.24289347574728" x2="744.2575976398058" y2="222.0296547969236" />
    <line x1="753.3169247506925" y1="199.24289347574728" x2="766.6713263935451" y2="212.97900226728126" />
    <line x1="753.3169247506925" y1="199.24289347574728" x2="763.264591017871" y2="219.68925837641038" />
    <line x1="830.5534408042049" y1="307.4313379676489" x2="830.7439535405747" y2="329.1456367339681" />
    <line x1="830.5534408042049" y1="307.4313379676489" x2="814.566257512949" y2="291.9305969486837" />
    <line x1="830.5534408042049" y1="307.4313379676489" x2="826.2955080911695" y2="323.81773979110534" />
    <line x1="830.5534408042049" y1="307.4313379676489" x2="839.4051449807957" y2="299.4465410255412" />
    <line x1="830.5534408042049" y1="307.4313379676489" x2="829.8259184195745" y2="304.7923558262257" />
    <line x1="830.5534408042049" y1="307.4313379676489" x2="824.0609828367138" y2="292.876935881979" />
    <line x1="830.5534408042049" y1="307.4313379676489" x2="818.3395011328782" y2="328.22793456117154" />
    <line x1="830.5534408042049" y1="307.4313379676489" x2="840.2259606519082" y2="291.71166176669476" />
    <line x1="740.523321267263" y1="211.28653071657126" x2="742.5066498886067" y2="213.75092045536198" />
    <line x1="740.523321267263" y1="211.28653071657126" x2="744.2575976398058" y2="222.0296547969236" />
    <line x1="740.523321267263" y1="211.28653071657126" x2="763.264591017871" y2="219.68925837641038" />
    <line x1="810.7768253068207" y1="326.18557960693875" x2="800.0343647213701" y2="327.4236652043629" />
    <line x1="810.7768253068207" y1="326.18557960693875" x2="830.7439535405747" y2="329.1456367339681" />
    <line x1="810.7768253068207" y1="326.18557960693875" x2="826.2955080911695" y2="323.81773979110534" />
    <line x1="810.7768253068207" y1="326.18557960693875" x2="798.724192955589" y2="310.95634900802366" />
    <line x1="810.7768253068207" y1="326.18557960693875" x2="818.3395011328782" y2="328.22793456117154" />
    <line x1="810.7768253068207" y1="326.18557960693875" x2="791.0739521012572" y2="321.5993452297688" />
    <line x1="810.7768253068207" y1="326.18557960693875" x2="816.8569992339061" y2="331.6784947482746" />
    <line x1="720.6202978361006" y1="275.9460009994411" x2="699.5551349684483" y2="276.3882113287823" />
    <line x1="720.6202978361006" y1="275.9460009994411" x2="741.7041886162892" y2="267.89570592344865" />
    <line x1="845.6265381630392" y1="280.50229651640865" x2="826.9768217294252" y2="265.18342029204706" />
    <line x1="845.6265381630392" y1="280.50229651640865" x2="835.9739590696915" y2="265.2640464554148" />
    <line x1="845.6265381630392" y1="280.50229651640865" x2="828.0876970307158" y2="266.63031202379847" />
    <line x1="845.6265381630392" y1="280.50229651640865" x2="829.1982106486928" y2="267.40973074157483" />
    <line x1="845.6265381630392" y1="280.50229651640865" x2="857.9205140453528" y2="292.81767907507697" />
    <line x1="845.6265381630392" y1="280.50229651640865" x2="821.2173300505667" y2="284.08084541562" />
    <line x1="845.6265381630392" y1="280.50229651640865" x2="866.7671024573451" y2="289.25066628998195" />
    <line x1="845.6265381630392" y1="280.50229651640865" x2="839.4051449807957" y2="299.4465410255412" />
    <line x1="845.6265381630392" y1="280.50229651640865" x2="824.0609828367138" y2="292.876935881979" />
    <line x1="845.6265381630392" y1="280.50229651640865" x2="856.6802952823227" y2="281.3437185339757" />
    <line x1="845.6265381630392" y1="280.50229651640865" x2="840.2259606519082" y2="291.71166176669476" />
    <line x1="845.6265381630392" y1="280.50229651640865" x2="864.1501610738106" y2="280.3166635058628" />
    <line x1="845.6265381630392" y1="280.50229651640865" x2="826.4324831775139" y2="267.4665349344953" />
    <line x1="800.0343647213701" y1="327.4236652043629" x2="780.5869538658781" y2="326.68486157323946" />
    <line x1="800.0343647213701" y1="327.4236652043629" x2="798.724192955589" y2="310.95634900802366" />
    <line x1="800.0343647213701" y1="327.4236652043629" x2="818.3395011328782" y2="328.22793456117154" />
    <line x1="800.0343647213701" y1="327.4236652043629" x2="791.0739521012572" y2="321.5993452297688" />
    <line x1="800.0343647213701" y1="327.4236652043629" x2="816.8569992339061" y2="331.6784947482746" />
    <line x1="826.9768217294252" y1="265.18342029204706" x2="835.9739590696915" y2="265.2640464554148" />
    <line x1="826.9768217294252" y1="265.18342029204706" x2="813.7699001893175" y2="265.476648870449" />
    <line x1="826.9768217294252" y1="265.18342029204706" x2="805.2516725624256" y2="259.05854615047065" />
    <line x1="826.9768217294252" y1="265.18342029204706" x2="828.0876970307158" y2="266.63031202379847" />
    <line x1="826.9768217294252" y1="265.18342029204706" x2="829.1982106486928" y2="267.40973074157483" />
    <line x1="826.9768217294252" y1="265.18342029204706" x2="818.1400492698617" y2="256.8482213116328" />
    <line x1="826.9768217294252" y1="265.18342029204706" x2="845.7439380340437" y2="249.21408875114489" />
    <line x1="826.9768217294252" y1="265.18342029204706" x2="802.426798883234" y2="262.6495191065693" />
    <line x1="826.9768217294252" y1="265.18342029204706" x2="809.7641357875136" y2="262.5535517226134" />
    <line x1="826.9768217294252" y1="265.18342029204706" x2="821.2173300505667" y2="284.08084541562" />
    <line x1="826.9768217294252" y1="265.18342029204706" x2="832.2101522292637" y2="255.2464657278639" />
    <line x1="826.9768217294252" y1="265.18342029204706" x2="816.0968551063315" y2="245.90686540811762" />
    <line x1="826.9768217294252" y1="265.18342029204706" x2="819.7087493084085" y2="249.64566673406551" />
    <line x1="826.9768217294252" y1="265.18342029204706" x2="815.3198201473748" y2="286.952954815591" />
    <line x1="826.9768217294252" y1="265.18342029204706" x2="804.3114058697299" y2="266.3016073861358" />
    <line x1="826.9768217294252" y1="265.18342029204706" x2="826.4324831775139" y2="267.4665349344953" />
    <line x1="868.1400206259036" y1="323.0863738103212" x2="871.2588267305439" y2="298.94353303456785" />
    <line x1="793.8280590654936" y1="245.2275100658824" x2="805.1879211573756" y2="237.53898491324645" />
    <line x1="793.8280590654936" y1="245.2275100658824" x2="808.4446031265082" y2="246.79182213402788" />
    <line x1="793.8280590654936" y1="245.2275100658824" x2="805.2516725624256" y2="259.05854615047065" />
    <line x1="793.8280590654936" y1="245.2275100658824" x2="784.8829428839917" y2="223.06959142487457" />
    <line x1="793.8280590654936" y1="245.2275100658824" x2="776.7274371207039" y2="235.2863802926473" />
    <line x1="793.8280590654936" y1="245.2275100658824" x2="802.426798883234" y2="262.6495191065693" />
    <line x1="793.8280590654936" y1="245.2275100658824" x2="809.7641357875136" y2="262.5535517226134" />
    <line x1="793.8280590654936" y1="245.2275100658824" x2="816.0968551063315" y2="245.90686540811762" />
    <line x1="793.8280590654936" y1="245.2275100658824" x2="796.6222436327369" y2="267.1783027473474" />
    <line x1="793.8280590654936" y1="245.2275100658824" x2="804.3114058697299" y2="266.3016073861358" />
    <line x1="793.8280590654936" y1="245.2275100658824" x2="779.4606953659063" y2="242.22796126535485" />
    <line x1="787.6586113193584" y1="278.9634867301056" x2="770.2449223276554" y2="264.994052429639" />
    <line x1="787.6586113193584" y1="278.9634867301056" x2="802.426798883234" y2="262.6495191065693" />
    <line x1="787.6586113193584" y1="278.9634867301056" x2="796.6222436327369" y2="267.1783027473474" />
    <line x1="787.6586113193584" y1="278.9634867301056" x2="773.4440302254087" y2="280.0786156685763" />
    <line x1="787.6586113193584" y1="278.9634867301056" x2="800.398709007542" y2="281.98055601355134" />
    <line x1="787.6586113193584" y1="278.9634867301056" x2="804.3114058697299" y2="266.3016073861358" />
    <line x1="787.6586113193584" y1="278.9634867301056" x2="766.7011752552651" y2="274.6403734879845" />
    <line x1="787.6586113193584" y1="278.9634867301056" x2="800.2987302503367" y2="271.26414965265457" />
    <line x1="787.6586113193584" y1="278.9634867301056" x2="798.106556588809" y2="285.044956366341" />
    <line x1="787.6586113193584" y1="278.9634867301056" x2="794.7664141827307" y2="302.85390998795526" />
    <line x1="805.1879211573756" y1="237.53898491324645" x2="808.4446031265082" y2="246.79182213402788" />
    <line x1="805.1879211573756" y1="237.53898491324645" x2="805.2516725624256" y2="259.05854615047065" />
    <line x1="805.1879211573756" y1="237.53898491324645" x2="784.8829428839917" y2="223.06959142487457" />
    <line x1="805.1879211573756" y1="237.53898491324645" x2="818.1400492698617" y2="256.8482213116328" />
    <line x1="805.1879211573756" y1="237.53898491324645" x2="809.0831798785184" y2="221.89090708962814" />
    <line x1="805.1879211573756" y1="237.53898491324645" x2="816.0968551063315" y2="245.90686540811762" />
    <line x1="805.1879211573756" y1="237.53898491324645" x2="819.7087493084085" y2="249.64566673406551" />
    <line x1="805.1879211573756" y1="237.53898491324645" x2="828.2733931337663" y2="231.47260975726738" />
    <line x1="844.7784716363386" y1="236.22443174449265" x2="842.2100831604988" y2="213.18527971234394" />
    <line x1="844.7784716363386" y1="236.22443174449265" x2="845.7439380340437" y2="249.21408875114489" />
    <line x1="844.7784716363386" y1="236.22443174449265" x2="852.7622017878069" y2="235.1985068077917" />
    <line x1="844.7784716363386" y1="236.22443174449265" x2="847.1412417719434" y2="222.28364520505747" />
    <line x1="844.7784716363386" y1="236.22443174449265" x2="844.1745327856055" y2="222.89939787203892" />
    <line x1="844.7784716363386" y1="236.22443174449265" x2="832.2101522292637" y2="255.2464657278639" />
    <line x1="844.7784716363386" y1="236.22443174449265" x2="828.2733931337663" y2="231.47260975726738" />
    <line x1="844.7784716363386" y1="236.22443174449265" x2="862.9332768351828" y2="221.22368601541362" />
    <line x1="844.7784716363386" y1="236.22443174449265" x2="858.1486659986156" y2="227.74364325641125" />
    <line x1="844.7784716363386" y1="236.22443174449265" x2="840.3798866556481" y2="230.6201929159137" />
    <line x1="780.5869538658781" y1="326.68486157323946" x2="798.724192955589" y2="310.95634900802366" />
    <line x1="780.5869538658781" y1="326.68486157323946" x2="779.8109604879363" y2="304.8545484805652" />
    <line x1="780.5869538658781" y1="326.68486157323946" x2="768.0038838592142" y2="305.83725876996834" />
    <line x1="780.5869538658781" y1="326.68486157323946" x2="791.0739521012572" y2="321.5993452297688" />
    <line x1="780.5869538658781" y1="326.68486157323946" x2="769.0779882109472" y2="315.9880280328139" />
    <line x1="780.5869538658781" y1="326.68486157323946" x2="780.032395903108" y2="305.4730595159146" />
    <line x1="777.4530899629581" y1="201.46982100709118" x2="784.8829428839917" y2="223.06959142487457" />
    <line x1="777.4530899629581" y1="201.46982100709118" x2="787.7914054890648" y2="196.99685907768864" />
    <line x1="777.4530899629581" y1="201.46982100709118" x2="772.4066679955772" y2="179.9082076795349" />
    <line x1="777.4530899629581" y1="201.46982100709118" x2="766.6713263935451" y2="212.97900226728126" />
    <line x1="777.4530899629581" y1="201.46982100709118" x2="763.264591017871" y2="219.68925837641038" />
    <line x1="808.4446031265082" y1="246.79182213402788" x2="813.7699001893175" y2="265.476648870449" />
    <line x1="808.4446031265082" y1="246.79182213402788" x2="805.2516725624256" y2="259.05854615047065" />
    <line x1="808.4446031265082" y1="246.79182213402788" x2="818.1400492698617" y2="256.8482213116328" />
    <line x1="808.4446031265082" y1="246.79182213402788" x2="802.426798883234" y2="262.6495191065693" />
    <line x1="808.4446031265082" y1="246.79182213402788" x2="809.7641357875136" y2="262.5535517226134" />
    <line x1="808.4446031265082" y1="246.79182213402788" x2="809.0831798785184" y2="221.89090708962814" />
    <line x1="808.4446031265082" y1="246.79182213402788" x2="816.0968551063315" y2="245.90686540811762" />
    <line x1="808.4446031265082" y1="246.79182213402788" x2="796.6222436327369" y2="267.1783027473474" />
    <line x1="808.4446031265082" y1="246.79182213402788" x2="819.7087493084085" y2="249.64566673406551" />
    <line x1="808.4446031265082" y1="246.79182213402788" x2="804.3114058697299" y2="266.3016073861358" />
    <line x1="835.9739590696915" y1="265.2640464554148" x2="813.7699001893175" y2="265.476648870449" />
    <line x1="835.9739590696915" y1="265.2640464554148" x2="828.0876970307158" y2="266.63031202379847" />
    <line x1="835.9739590696915" y1="265.2640464554148" x2="829.1982106486928" y2="267.40973074157483" />
    <line x1="835.9739590696915" y1="265.2640464554148" x2="818.1400492698617" y2="256.8482213116328" />
    <line x1="835.9739590696915" y1="265.2640464554148" x2="845.7439380340437" y2="249.21408875114489" />
    <line x1="835.9739590696915" y1="265.2640464554148" x2="821.2173300505667" y2="284.08084541562" />
    <line x1="835.9739590696915" y1="265.2640464554148" x2="832.2101522292637" y2="255.2464657278639" />
    <line x1="835.9739590696915" y1="265.2640464554148" x2="819.7087493084085" y2="249.64566673406551" />
    <line x1="835.9739590696915" y1="265.2640464554148" x2="826.4324831775139" y2="267.4665349344953" />
    <line x1="813.7699001893175" y1="265.476648870449" x2="805.2516725624256" y2="259.05854615047065" />
    <line x1="813.7699001893175" y1="265.476648870449" x2="828.0876970307158" y2="266.63031202379847" />
    <line x1="813.7699001893175" y1="265.476648870449" x2="829.1982106486928" y2="267.40973074157483" />
    <line x1="813.7699001893175" y1="265.476648870449" x2="818.1400492698617" y2="256.8482213116328" />
    <line x1="813.7699001893175" y1="265.476648870449" x2="802.426798883234" y2="262.6495191065693" />
    <line x1="813.7699001893175" y1="265.476648870449" x2="809.7641357875136" y2="262.5535517226134" />
    <line x1="813.7699001893175" y1="265.476648870449" x2="821.2173300505667" y2="284.08084541562" />
    <line x1="813.7699001893175" y1="265.476648870449" x2="832.2101522292637" y2="255.2464657278639" />
    <line x1="813.7699001893175" y1="265.476648870449" x2="816.0968551063315" y2="245.90686540811762" />
    <line x1="813.7699001893175" y1="265.476648870449" x2="796.6222436327369" y2="267.1783027473474" />
    <line x1="813.7699001893175" y1="265.476648870449" x2="819.7087493084085" y2="249.64566673406551" />
    <line x1="813.7699001893175" y1="265.476648870449" x2="800.398709007542" y2="281.98055601355134" />
    <line x1="813.7699001893175" y1="265.476648870449" x2="815.3198201473748" y2="286.952954815591" />
    <line x1="813.7699001893175" y1="265.476648870449" x2="804.3114058697299" y2="266.3016073861358" />
    <line x1="813.7699001893175" y1="265.476648870449" x2="800.2987302503367" y2="271.26414965265457" />
    <line x1="813.7699001893175" y1="265.476648870449" x2="826.4324831775139" y2="267.4665349344953" />
    <line x1="805.2516725624256" y1="259.05854615047065" x2="828.0876970307158" y2="266.63031202379847" />
    <line x1="805.2516725624256" y1="259.05854615047065" x2="818.1400492698617" y2="256.8482213116328" />
    <line x1="805.2516725624256" y1="259.05854615047065" x2="802.426798883234" y2="262.6495191065693" />
    <line x1="805.2516725624256" y1="259.05854615047065" x2="809.7641357875136" y2="262.5535517226134" />
    <line x1="805.2516725624256" y1="259.05854615047065" x2="816.0968551063315" y2="245.90686540811762" />
    <line x1="805.2516725624256" y1="259.05854615047065" x2="796.6222436327369" y2="267.1783027473474" />
    <line x1="805.2516725624256" y1="259.05854615047065" x2="819.7087493084085" y2="249.64566673406551" />
    <line x1="805.2516725624256" y1="259.05854615047065" x2="800.398709007542" y2="281.98055601355134" />
    <line x1="805.2516725624256" y1="259.05854615047065" x2="804.3114058697299" y2="266.3016073861358" />
    <line x1="805.2516725624256" y1="259.05854615047065" x2="800.2987302503367" y2="271.26414965265457" />
    <line x1="805.2516725624256" y1="259.05854615047065" x2="826.4324831775139" y2="267.4665349344953" />
    <line x1="828.0876970307158" y1="266.63031202379847" x2="829.1982106486928" y2="267.40973074157483" />
    <line x1="828.0876970307158" y1="266.63031202379847" x2="818.1400492698617" y2="256.8482213116328" />
    <line x1="828.0876970307158" y1="266.63031202379847" x2="845.7439380340437" y2="249.21408875114489" />
    <line x1="828.0876970307158" y1="266.63031202379847" x2="809.7641357875136" y2="262.5535517226134" />
    <line x1="828.0876970307158" y1="266.63031202379847" x2="821.2173300505667" y2="284.08084541562" />
    <line x1="828.0876970307158" y1="266.63031202379847" x2="832.2101522292637" y2="255.2464657278639" />
    <line x1="828.0876970307158" y1="266.63031202379847" x2="816.0968551063315" y2="245.90686540811762" />
    <line x1="828.0876970307158" y1="266.63031202379847" x2="819.7087493084085" y2="249.64566673406551" />
    <line x1="828.0876970307158" y1="266.63031202379847" x2="815.3198201473748" y2="286.952954815591" />
    <line x1="828.0876970307158" y1="266.63031202379847" x2="804.3114058697299" y2="266.3016073861358" />
    <line x1="828.0876970307158" y1="266.63031202379847" x2="826.4324831775139" y2="267.4665349344953" />
    <line x1="884.0043571851802" y1="213.6612419554679" x2="860.9746334808682" y2="208.58387902359604" />
    <line x1="884.0043571851802" y1="213.6612419554679" x2="862.9332768351828" y2="221.22368601541362" />
    <line x1="884.0043571851802" y1="213.6612419554679" x2="872.1414223113408" y2="219.6680577378416" />
    <line x1="884.0043571851802" y1="213.6612419554679" x2="869.2538839281978" y2="226.20449932926707" />
    <line x1="884.0043571851802" y1="213.6612419554679" x2="868.1882724770123" y2="200.28456816499303" />
    <line x1="768.7676682163146" y1="256.39467458423275" x2="747.5989011567058" y2="256.59345078526474" />
    <line x1="768.7676682163146" y1="256.39467458423275" x2="776.7274371207039" y2="235.2863802926473" />
    <line x1="768.7676682163146" y1="256.39467458423275" x2="770.2449223276554" y2="264.994052429639" />
    <line x1="768.7676682163146" y1="256.39467458423275" x2="773.4440302254087" y2="280.0786156685763" />
    <line x1="768.7676682163146" y1="256.39467458423275" x2="779.4606953659063" y2="242.22796126535485" />
    <line x1="768.7676682163146" y1="256.39467458423275" x2="766.7011752552651" y2="274.6403734879845" />
    <line x1="747.5989011567058" y1="256.59345078526474" x2="770.2449223276554" y2="264.994052429639" />
    <line x1="747.5989011567058" y1="256.59345078526474" x2="746.9436393115026" y2="274.9726221894615" />
    <line x1="747.5989011567058" y1="256.59345078526474" x2="753.6670784334066" y2="277.1580789309427" />
    <line x1="747.5989011567058" y1="256.59345078526474" x2="752.863946987106" y2="236.882121688833" />
    <line x1="747.5989011567058" y1="256.59345078526474" x2="741.7041886162892" y2="267.89570592344865" />
    <line x1="784.8829428839917" y1="223.06959142487457" x2="776.7274371207039" y2="235.2863802926473" />
    <line x1="784.8829428839917" y1="223.06959142487457" x2="809.0831798785184" y2="221.89090708962814" />
    <line x1="784.8829428839917" y1="223.06959142487457" x2="779.4606953659063" y2="242.22796126535485" />
    <line x1="784.8829428839917" y1="223.06959142487457" x2="766.6713263935451" y2="212.97900226728126" />
    <line x1="784.8829428839917" y1="223.06959142487457" x2="763.264591017871" y2="219.68925837641038" />
    <line x1="829.1982106486928" y1="267.40973074157483" x2="818.1400492698617" y2="256.8482213116328" />
    <line x1="829.1982106486928" y1="267.40973074157483" x2="845.7439380340437" y2="249.21408875114489" />
    <line x1="829.1982106486928" y1="267.40973074157483" x2="809.7641357875136" y2="262.5535517226134" />
    <line x1="829.1982106486928" y1="267.40973074157483" x2="821.2173300505667" y2="284.08084541562" />
    <line x1="829.1982106486928" y1="267.40973074157483" x2="832.2101522292637" y2="255.2464657278639" />
    <line x1="829.1982106486928" y1="267.40973074157483" x2="819.7087493084085" y2="249.64566673406551" />
    <line x1="829.1982106486928" y1="267.40973074157483" x2="815.3198201473748" y2="286.952954815591" />
    <line x1="829.1982106486928" y1="267.40973074157483" x2="804.3114058697299" y2="266.3016073861358" />
    <line x1="829.1982106486928" y1="267.40973074157483" x2="826.4324831775139" y2="267.4665349344953" />
    <line x1="818.1400492698617" y1="256.8482213116328" x2="802.426798883234" y2="262.6495191065693" />
    <line x1="818.1400492698617" y1="256.8482213116328" x2="809.7641357875136" y2="262.5535517226134" />
    <line x1="818.1400492698617" y1="256.8482213116328" x2="832.2101522292637" y2="255.2464657278639" />
    <line x1="818.1400492698617" y1="256.8482213116328" x2="816.0968551063315" y2="245.90686540811762" />
    <line x1="818.1400492698617" y1="256.8482213116328" x2="796.6222436327369" y2="267.1783027473474" />
    <line x1="818.1400492698617" y1="256.8482213116328" x2="819.7087493084085" y2="249.64566673406551" />
    <line x1="818.1400492698617" y1="256.8482213116328" x2="804.3114058697299" y2="266.3016073861358" />
    <line x1="818.1400492698617" y1="256.8482213116328" x2="800.2987302503367" y2="271.26414965265457" />
    <line x1="818.1400492698617" y1="256.8482213116328" x2="826.4324831775139" y2="267.4665349344953" />
    <line x1="828.7048330745137" y1="189.02807019224215" x2="812.4913108438385" y2="202.9800042546225" />
    <line x1="830.7439535405747" y1="329.1456367339681" x2="826.2955080911695" y2="323.81773979110534" />
    <line x1="830.7439535405747" y1="329.1456367339681" x2="829.8259184195745" y2="304.7923558262257" />
    <line x1="830.7439535405747" y1="329.1456367339681" x2="818.3395011328782" y2="328.22793456117154" />
    <line x1="830.7439535405747" y1="329.1456367339681" x2="816.8569992339061" y2="331.6784947482746" />
    <line x1="857.9205140453528" y1="292.81767907507697" x2="866.7671024573451" y2="289.25066628998195" />
    <line x1="857.9205140453528" y1="292.81767907507697" x2="839.4051449807957" y2="299.4465410255412" />
    <line x1="857.9205140453528" y1="292.81767907507697" x2="871.2588267305439" y2="298.94353303456785" />
    <line x1="857.9205140453528" y1="292.81767907507697" x2="856.6802952823227" y2="281.3437185339757" />
    <line x1="857.9205140453528" y1="292.81767907507697" x2="840.2259606519082" y2="291.71166176669476" />
    <line x1="857.9205140453528" y1="292.81767907507697" x2="864.1501610738106" y2="280.3166635058628" />
    <line x1="814.566257512949" y1="291.9305969486837" x2="821.2173300505667" y2="284.08084541562" />
    <line x1="814.566257512949" y1="291.9305969486837" x2="798.724192955589" y2="310.95634900802366" />
    <line x1="814.566257512949" y1="291.9305969486837" x2="829.8259184195745" y2="304.7923558262257" />
    <line x1="814.566257512949" y1="291.9305969486837" x2="824.0609828367138" y2="292.876935881979" />
    <line x1="814.566257512949" y1="291.9305969486837" x2="800.398709007542" y2="281.98055601355134" />
    <line x1="814.566257512949" y1="291.9305969486837" x2="815.3198201473748" y2="286.952954815591" />
    <line x1="814.566257512949" y1="291.9305969486837" x2="798.106556588809" y2="285.044956366341" />
    <line x1="814.566257512949" y1="291.9305969486837" x2="794.7664141827307" y2="302.85390998795526" />
    <line x1="826.2955080911695" y1="323.81773979110534" x2="829.8259184195745" y2="304.7923558262257" />
    <line x1="826.2955080911695" y1="323.81773979110534" x2="818.3395011328782" y2="328.22793456117154" />
    <line x1="826.2955080911695" y1="323.81773979110534" x2="816.8569992339061" y2="331.6784947482746" />
    <line x1="776.7274371207039" y1="235.2863802926473" x2="752.863946987106" y2="236.882121688833" />
    <line x1="776.7274371207039" y1="235.2863802926473" x2="779.4606953659063" y2="242.22796126535485" />
    <line x1="776.7274371207039" y1="235.2863802926473" x2="766.6713263935451" y2="212.97900226728126" />
    <line x1="776.7274371207039" y1="235.2863802926473" x2="763.264591017871" y2="219.68925837641038" />
    <line x1="842.2100831604988" y1="213.18527971234394" x2="852.7622017878069" y2="235.1985068077917" />
    <line x1="842.2100831604988" y1="213.18527971234394" x2="847.1412417719434" y2="222.28364520505747" />
    <line x1="842.2100831604988" y1="213.18527971234394" x2="844.1745327856055" y2="222.89939787203892" />
    <line x1="842.2100831604988" y1="213.18527971234394" x2="860.9746334808682" y2="208.58387902359604" />
    <line x1="842.2100831604988" y1="213.18527971234394" x2="828.2733931337663" y2="231.47260975726738" />
    <line x1="842.2100831604988" y1="213.18527971234394" x2="862.9332768351828" y2="221.22368601541362" />
    <line x1="842.2100831604988" y1="213.18527971234394" x2="858.1486659986156" y2="227.74364325641125" />
    <line x1="842.2100831604988" y1="213.18527971234394" x2="840.3798866556481" y2="230.6201929159137" />
    <line x1="845.7439380340437" y1="249.21408875114489" x2="852.7622017878069" y2="235.1985068077917" />
    <line x1="845.7439380340437" y1="249.21408875114489" x2="832.2101522292637" y2="255.2464657278639" />
    <line x1="845.7439380340437" y1="249.21408875114489" x2="828.2733931337663" y2="231.47260975726738" />
    <line x1="845.7439380340437" y1="249.21408875114489" x2="858.1486659986156" y2="227.74364325641125" />
    <line x1="845.7439380340437" y1="249.21408875114489" x2="840.3798866556481" y2="230.6201929159137" />
    <line x1="852.7622017878069" y1="235.1985068077917" x2="847.1412417719434" y2="222.28364520505747" />
    <line x1="852.7622017878069" y1="235.1985068077917" x2="844.1745327856055" y2="222.89939787203892" />
    <line x1="852.7622017878069" y1="235.1985068077917" x2="828.2733931337663" y2="231.47260975726738" />
    <line x1="852.7622017878069" y1="235.1985068077917" x2="862.9332768351828" y2="221.22368601541362" />
    <line x1="852.7622017878069" y1="235.1985068077917" x2="872.1414223113408" y2="219.6680577378416" />
    <line x1="852.7622017878069" y1="235.1985068077917" x2="869.2538839281978" y2="226.20449932926707" />
    <line x1="852.7622017878069" y1="235.1985068077917" x2="858.1486659986156" y2="227.74364325641125" />
    <line x1="852.7622017878069" y1="235.1985068077917" x2="840.3798866556481" y2="230.6201929159137" />
    <line x1="894.3420005454044" y1="290.7089046007721" x2="889.2465508777216" y2="281.37132484058475" />
    <line x1="894.3420005454044" y1="290.7089046007721" x2="871.2588267305439" y2="298.94353303456785" />
    <line x1="770.2449223276554" y1="264.994052429639" x2="761.7076073398453" y2="288.39726851963087" />
    <line x1="770.2449223276554" y1="264.994052429639" x2="753.6670784334066" y2="277.1580789309427" />
    <line x1="770.2449223276554" y1="264.994052429639" x2="773.4440302254087" y2="280.0786156685763" />
    <line x1="770.2449223276554" y1="264.994052429639" x2="779.4606953659063" y2="242.22796126535485" />
    <line x1="770.2449223276554" y1="264.994052429639" x2="766.7011752552651" y2="274.6403734879845" />
    <line x1="802.426798883234" y1="262.6495191065693" x2="809.7641357875136" y2="262.5535517226134" />
    <line x1="802.426798883234" y1="262.6495191065693" x2="816.0968551063315" y2="245.90686540811762" />
    <line x1="802.426798883234" y1="262.6495191065693" x2="796.6222436327369" y2="267.1783027473474" />
    <line x1="802.426798883234" y1="262.6495191065693" x2="819.7087493084085" y2="249.64566673406551" />
    <line x1="802.426798883234" y1="262.6495191065693" x2="800.398709007542" y2="281.98055601355134" />
    <line x1="802.426798883234" y1="262.6495191065693" x2="804.3114058697299" y2="266.3016073861358" />
    <line x1="802.426798883234" y1="262.6495191065693" x2="800.2987302503367" y2="271.26414965265457" />
    <line x1="802.426798883234" y1="262.6495191065693" x2="798.106556588809" y2="285.044956366341" />
    <line x1="802.426798883234" y1="262.6495191065693" x2="826.4324831775139" y2="267.4665349344953" />
    <line x1="746.9436393115026" y1="274.9726221894615" x2="761.7076073398453" y2="288.39726851963087" />
    <line x1="746.9436393115026" y1="274.9726221894615" x2="753.6670784334066" y2="277.1580789309427" />
    <line x1="746.9436393115026" y1="274.9726221894615" x2="759.5345945803674" y2="288.2138335078161" />
    <line x1="746.9436393115026" y1="274.9726221894615" x2="741.7041886162892" y2="267.89570592344865" />
    <line x1="746.9436393115026" y1="274.9726221894615" x2="766.7011752552651" y2="274.6403734879845" />
    <line x1="746.9436393115026" y1="274.9726221894615" x2="746.5795227453143" y2="287.370233647841" />
    <line x1="847.1412417719434" y1="222.28364520505747" x2="844.1745327856055" y2="222.89939787203892" />
    <line x1="847.1412417719434" y1="222.28364520505747" x2="860.9746334808682" y2="208.58387902359604" />
    <line x1="847.1412417719434" y1="222.28364520505747" x2="828.2733931337663" y2="231.47260975726738" />
    <line x1="847.1412417719434" y1="222.28364520505747" x2="862.9332768351828" y2="221.22368601541362" />
    <line x1="847.1412417719434" y1="222.28364520505747" x2="869.2538839281978" y2="226.20449932926707" />
    <line x1="847.1412417719434" y1="222.28364520505747" x2="858.1486659986156" y2="227.74364325641125" />
    <line x1="847.1412417719434" y1="222.28364520505747" x2="840.3798866556481" y2="230.6201929159137" />
    <line x1="794.1994737588675" y1="147.44947085740586" x2="791.4136087008686" y2="171.29819844712082" />
    <line x1="844.1745327856055" y1="222.89939787203892" x2="860.9746334808682" y2="208.58387902359604" />
    <line x1="844.1745327856055" y1="222.89939787203892" x2="828.2733931337663" y2="231.47260975726738" />
    <line x1="844.1745327856055" y1="222.89939787203892" x2="862.9332768351828" y2="221.22368601541362" />
    <line x1="844.1745327856055" y1="222.89939787203892" x2="858.1486659986156" y2="227.74364325641125" />
    <line x1="844.1745327856055" y1="222.89939787203892" x2="840.3798866556481" y2="230.6201929159137" />
    <line x1="761.7076073398453" y1="288.39726851963087" x2="753.6670784334066" y2="277.1580789309427" />
    <line x1="761.7076073398453" y1="288.39726851963087" x2="779.8109604879363" y2="304.8545484805652" />
    <line x1="761.7076073398453" y1="288.39726851963087" x2="768.0038838592142" y2="305.83725876996834" />
    <line x1="761.7076073398453" y1="288.39726851963087" x2="759.5345945803674" y2="288.2138335078161" />
    <line x1="761.7076073398453" y1="288.39726851963087" x2="773.4440302254087" y2="280.0786156685763" />
    <line x1="761.7076073398453" y1="288.39726851963087" x2="766.7011752552651" y2="274.6403734879845" />
    <line x1="761.7076073398453" y1="288.39726851963087" x2="746.5795227453143" y2="287.370233647841" />
    <line x1="809.7641357875136" y1="262.5535517226134" x2="821.2173300505667" y2="284.08084541562" />
    <line x1="809.7641357875136" y1="262.5535517226134" x2="832.2101522292637" y2="255.2464657278639" />
    <line x1="809.7641357875136" y1="262.5535517226134" x2="816.0968551063315" y2="245.90686540811762" />
    <line x1="809.7641357875136" y1="262.5535517226134" x2="796.6222436327369" y2="267.1783027473474" />
    <line x1="809.7641357875136" y1="262.5535517226134" x2="819.7087493084085" y2="249.64566673406551" />
    <line x1="809.7641357875136" y1="262.5535517226134" x2="800.398709007542" y2="281.98055601355134" />
    <line x1="809.7641357875136" y1="262.5535517226134" x2="804.3114058697299" y2="266.3016073861358" />
    <line x1="809.7641357875136" y1="262.5535517226134" x2="800.2987302503367" y2="271.26414965265457" />
    <line x1="809.7641357875136" y1="262.5535517226134" x2="826.4324831775139" y2="267.4665349344953" />
    <line x1="740.9976265699501" y1="318.29434647947323" x2="726.1638006881637" y2="302.1712607999367" />
    <line x1="821.2173300505667" y1="284.08084541562" x2="839.4051449807957" y2="299.4465410255412" />
    <line x1="821.2173300505667" y1="284.08084541562" x2="829.8259184195745" y2="304.7923558262257" />
    <line x1="821.2173300505667" y1="284.08084541562" x2="824.0609828367138" y2="292.876935881979" />
    <line x1="821.2173300505667" y1="284.08084541562" x2="800.398709007542" y2="281.98055601355134" />
    <line x1="821.2173300505667" y1="284.08084541562" x2="815.3198201473748" y2="286.952954815591" />
    <line x1="821.2173300505667" y1="284.08084541562" x2="840.2259606519082" y2="291.71166176669476" />
    <line x1="821.2173300505667" y1="284.08084541562" x2="804.3114058697299" y2="266.3016073861358" />
    <line x1="821.2173300505667" y1="284.08084541562" x2="800.2987302503367" y2="271.26414965265457" />
    <line x1="821.2173300505667" y1="284.08084541562" x2="798.106556588809" y2="285.044956366341" />
    <line x1="821.2173300505667" y1="284.08084541562" x2="826.4324831775139" y2="267.4665349344953" />
    <line x1="753.6670784334066" y1="277.1580789309427" x2="759.5345945803674" y2="288.2138335078161" />
    <line x1="753.6670784334066" y1="277.1580789309427" x2="773.4440302254087" y2="280.0786156685763" />
    <line x1="753.6670784334066" y1="277.1580789309427" x2="741.7041886162892" y2="267.89570592344865" />
    <line x1="753.6670784334066" y1="277.1580789309427" x2="766.7011752552651" y2="274.6403734879845" />
    <line x1="753.6670784334066" y1="277.1580789309427" x2="746.5795227453143" y2="287.370233647841" />
    <line x1="809.0831798785184" y1="221.89090708962814" x2="812.4913108438385" y2="202.9800042546225" />
    <line x1="809.0831798785184" y1="221.89090708962814" x2="828.2733931337663" y2="231.47260975726738" />
    <line x1="866.7671024573451" y1="289.25066628998195" x2="889.2465508777216" y2="281.37132484058475" />
    <line x1="866.7671024573451" y1="289.25066628998195" x2="871.2588267305439" y2="298.94353303456785" />
    <line x1="866.7671024573451" y1="289.25066628998195" x2="856.6802952823227" y2="281.3437185339757" />
    <line x1="866.7671024573451" y1="289.25066628998195" x2="864.1501610738106" y2="280.3166635058628" />
    <line x1="787.7914054890648" y1="196.99685907768864" x2="772.4066679955772" y2="179.9082076795349" />
    <line x1="839.4051449807957" y1="299.4465410255412" x2="829.8259184195745" y2="304.7923558262257" />
    <line x1="839.4051449807957" y1="299.4465410255412" x2="824.0609828367138" y2="292.876935881979" />
    <line x1="839.4051449807957" y1="299.4465410255412" x2="840.2259606519082" y2="291.71166176669476" />
    <line x1="798.724192955589" y1="310.95634900802366" x2="779.8109604879363" y2="304.8545484805652" />
    <line x1="798.724192955589" y1="310.95634900802366" x2="791.0739521012572" y2="321.5993452297688" />
    <line x1="798.724192955589" y1="310.95634900802366" x2="780.032395903108" y2="305.4730595159146" />
    <line x1="798.724192955589" y1="310.95634900802366" x2="794.7664141827307" y2="302.85390998795526" />
    <line x1="860.9746334808682" y1="208.58387902359604" x2="862.9332768351828" y2="221.22368601541362" />
    <line x1="860.9746334808682" y1="208.58387902359604" x2="872.1414223113408" y2="219.6680577378416" />
    <line x1="860.9746334808682" y1="208.58387902359604" x2="869.2538839281978" y2="226.20449932926707" />
    <line x1="860.9746334808682" y1="208.58387902359604" x2="873.1332836760093" y2="190.8447497259012" />
    <line x1="860.9746334808682" y1="208.58387902359604" x2="858.1486659986156" y2="227.74364325641125" />
    <line x1="860.9746334808682" y1="208.58387902359604" x2="868.1882724770123" y2="200.28456816499303" />
    <line x1="752.863946987106" y1="236.882121688833" x2="744.2575976398058" y2="222.0296547969236" />
    <line x1="752.863946987106" y1="236.882121688833" x2="763.264591017871" y2="219.68925837641038" />
    <line x1="832.2101522292637" y1="255.2464657278639" x2="816.0968551063315" y2="245.90686540811762" />
    <line x1="832.2101522292637" y1="255.2464657278639" x2="819.7087493084085" y2="249.64566673406551" />
    <line x1="832.2101522292637" y1="255.2464657278639" x2="828.2733931337663" y2="231.47260975726738" />
    <line x1="832.2101522292637" y1="255.2464657278639" x2="826.4324831775139" y2="267.4665349344953" />
    <line x1="816.0968551063315" y1="245.90686540811762" x2="819.7087493084085" y2="249.64566673406551" />
    <line x1="816.0968551063315" y1="245.90686540811762" x2="828.2733931337663" y2="231.47260975726738" />
    <line x1="816.0968551063315" y1="245.90686540811762" x2="804.3114058697299" y2="266.3016073861358" />
    <line x1="816.0968551063315" y1="245.90686540811762" x2="826.4324831775139" y2="267.4665349344953" />
    <line x1="829.8259184195745" y1="304.7923558262257" x2="824.0609828367138" y2="292.876935881979" />
    <line x1="829.8259184195745" y1="304.7923558262257" x2="815.3198201473748" y2="286.952954815591" />
    <line x1="829.8259184195745" y1="304.7923558262257" x2="840.2259606519082" y2="291.71166176669476" />
    <line x1="742.5066498886067" y1="213.75092045536198" x2="744.2575976398058" y2="222.0296547969236" />
    <line x1="742.5066498886067" y1="213.75092045536198" x2="766.6713263935451" y2="212.97900226728126" />
    <line x1="742.5066498886067" y1="213.75092045536198" x2="763.264591017871" y2="219.68925837641038" />
    <line x1="779.8109604879363" y1="304.8545484805652" x2="768.0038838592142" y2="305.83725876996834" />
    <line x1="779.8109604879363" y1="304.8545484805652" x2="791.0739521012572" y2="321.5993452297688" />
    <line x1="779.8109604879363" y1="304.8545484805652" x2="769.0779882109472" y2="315.9880280328139" />
    <line x1="779.8109604879363" y1="304.8545484805652" x2="780.032395903108" y2="305.4730595159146" />
    <line x1="779.8109604879363" y1="304.8545484805652" x2="794.7664141827307" y2="302.85390998795526" />
    <line x1="796.6222436327369" y1="267.1783027473474" x2="800.398709007542" y2="281.98055601355134" />
    <line x1="796.6222436327369" y1="267.1783027473474" x2="804.3114058697299" y2="266.3016073861358" />
    <line x1="796.6222436327369" y1="267.1783027473474" x2="800.2987302503367" y2="271.26414965265457" />
    <line x1="796.6222436327369" y1="267.1783027473474" x2="798.106556588809" y2="285.044956366341" />
    <line x1="889.2465508777216" y1="281.37132484058475" x2="888.9150462644735" y2="259.04239932302715" />
    <line x1="824.0609828367138" y1="292.876935881979" x2="815.3198201473748" y2="286.952954815591" />
    <line x1="824.0609828367138" y1="292.876935881979" x2="840.2259606519082" y2="291.71166176669476" />
    <line x1="768.0038838592142" y1="305.83725876996834" x2="759.5345945803674" y2="288.2138335078161" />
    <line x1="768.0038838592142" y1="305.83725876996834" x2="769.0779882109472" y2="315.9880280328139" />
    <line x1="768.0038838592142" y1="305.83725876996834" x2="780.032395903108" y2="305.4730595159146" />
    <line x1="744.2575976398058" y1="222.0296547969236" x2="766.6713263935451" y2="212.97900226728126" />
    <line x1="744.2575976398058" y1="222.0296547969236" x2="763.264591017871" y2="219.68925837641038" />
    <line x1="819.7087493084085" y1="249.64566673406551" x2="828.2733931337663" y2="231.47260975726738" />
    <line x1="819.7087493084085" y1="249.64566673406551" x2="804.3114058697299" y2="266.3016073861358" />
    <line x1="819.7087493084085" y1="249.64566673406551" x2="826.4324831775139" y2="267.4665349344953" />
    <line x1="871.2588267305439" y1="298.94353303456785" x2="856.6802952823227" y2="281.3437185339757" />
    <line x1="871.2588267305439" y1="298.94353303456785" x2="864.1501610738106" y2="280.3166635058628" />
    <line x1="759.5345945803674" y1="288.2138335078161" x2="773.4440302254087" y2="280.0786156685763" />
    <line x1="759.5345945803674" y1="288.2138335078161" x2="766.7011752552651" y2="274.6403734879845" />
    <line x1="759.5345945803674" y1="288.2138335078161" x2="746.5795227453143" y2="287.370233647841" />
    <line x1="828.2733931337663" y1="231.47260975726738" x2="840.3798866556481" y2="230.6201929159137" />
    <line x1="856.6802952823227" y1="281.3437185339757" x2="840.2259606519082" y2="291.71166176669476" />
    <line x1="856.6802952823227" y1="281.3437185339757" x2="864.1501610738106" y2="280.3166635058628" />
    <line x1="773.4440302254087" y1="280.0786156685763" x2="766.7011752552651" y2="274.6403734879845" />
    <line x1="862.9332768351828" y1="221.22368601541362" x2="872.1414223113408" y2="219.6680577378416" />
    <line x1="862.9332768351828" y1="221.22368601541362" x2="869.2538839281978" y2="226.20449932926707" />
    <line x1="862.9332768351828" y1="221.22368601541362" x2="858.1486659986156" y2="227.74364325641125" />
    <line x1="862.9332768351828" y1="221.22368601541362" x2="868.1882724770123" y2="200.28456816499303" />
    <line x1="862.9332768351828" y1="221.22368601541362" x2="840.3798866556481" y2="230.6201929159137" />
    <line x1="800.398709007542" y1="281.98055601355134" x2="815.3198201473748" y2="286.952954815591" />
    <line x1="800.398709007542" y1="281.98055601355134" x2="804.3114058697299" y2="266.3016073861358" />
    <line x1="800.398709007542" y1="281.98055601355134" x2="800.2987302503367" y2="271.26414965265457" />
    <line x1="800.398709007542" y1="281.98055601355134" x2="798.106556588809" y2="285.044956366341" />
    <line x1="800.398709007542" y1="281.98055601355134" x2="794.7664141827307" y2="302.85390998795526" />
    <line x1="815.3198201473748" y1="286.952954815591" x2="804.3114058697299" y2="266.3016073861358" />
    <line x1="815.3198201473748" y1="286.952954815591" x2="800.2987302503367" y2="271.26414965265457" />
    <line x1="815.3198201473748" y1="286.952954815591" x2="798.106556588809" y2="285.044956366341" />
    <line x1="815.3198201473748" y1="286.952954815591" x2="826.4324831775139" y2="267.4665349344953" />
    <line x1="818.3395011328782" y1="328.22793456117154" x2="816.8569992339061" y2="331.6784947482746" />
    <line x1="872.1414223113408" y1="219.6680577378416" x2="869.2538839281978" y2="226.20449932926707" />
    <line x1="872.1414223113408" y1="219.6680577378416" x2="858.1486659986156" y2="227.74364325641125" />
    <line x1="872.1414223113408" y1="219.6680577378416" x2="868.1882724770123" y2="200.28456816499303" />
    <line x1="772.4066679955772" y1="179.9082076795349" x2="791.4136087008686" y2="171.29819844712082" />
    <line x1="772.4066679955772" y1="179.9082076795349" x2="774.9692694643419" y2="171.2313904303302" />
    <line x1="772.4066679955772" y1="179.9082076795349" x2="773.6002023424443" y2="174.74234710231534" />
    <line x1="791.4136087008686" y1="171.29819844712082" x2="774.9692694643419" y2="171.2313904303302" />
    <line x1="791.4136087008686" y1="171.29819844712082" x2="773.6002023424443" y2="174.74234710231534" />
    <line x1="791.0739521012572" y1="321.5993452297688" x2="769.0779882109472" y2="315.9880280328139" />
    <line x1="791.0739521012572" y1="321.5993452297688" x2="780.032395903108" y2="305.4730595159146" />
    <line x1="791.0739521012572" y1="321.5993452297688" x2="794.7664141827307" y2="302.85390998795526" />
    <line x1="869.2538839281978" y1="226.20449932926707" x2="858.1486659986156" y2="227.74364325641125" />
    <line x1="873.1332836760093" y1="190.8447497259012" x2="868.1882724770123" y2="200.28456816499303" />
    <line x1="804.3114058697299" y1="266.3016073861358" x2="800.2987302503367" y2="271.26414965265457" />
    <line x1="804.3114058697299" y1="266.3016073861358" x2="798.106556588809" y2="285.044956366341" />
    <line x1="804.3114058697299" y1="266.3016073861358" x2="826.4324831775139" y2="267.4665349344953" />
    <line x1="769.0779882109472" y1="315.9880280328139" x2="780.032395903108" y2="305.4730595159146" />
    <line x1="858.1486659986156" y1="227.74364325641125" x2="840.3798866556481" y2="230.6201929159137" />
    <line x1="774.9692694643419" y1="171.2313904303302" x2="773.6002023424443" y2="174.74234710231534" />
    <line x1="741.7041886162892" y1="267.89570592344865" x2="746.5795227453143" y2="287.370233647841" />
    <line x1="766.6713263935451" y1="212.97900226728126" x2="763.264591017871" y2="219.68925837641038" />
    <line x1="766.7011752552651" y1="274.6403734879845" x2="746.5795227453143" y2="287.370233647841" />
    <line x1="780.032395903108" y1="305.4730595159146" x2="794.7664141827307" y2="302.85390998795526" />
    <line x1="800.2987302503367" y1="271.26414965265457" x2="798.106556588809" y2="285.044956366341" />
    <line x1="798.106556588809" y1="285.044956366341" x2="794.7664141827307" y2="302.85390998795526" />
  </g>
  <circle cx="837.518213974494" cy="351.89243203143644" r="0.5" fill="#d64a3a" filter="url(#glow)"/>
  <circle cx="793.3873078862488" cy="234.49111303744482" r="2.5785046917457284" fill="#e8e0d4" filter="url(#glow)"/>
  <circle cx="785.6765717857936" cy="326.24036024672694" r="1.0606455445241862" fill="#d64a3a" filter="url(#glow)"/>
  <circle cx="755.9589631899031" cy="181.03544175818504" r="0.9543150265746871" fill="#d64a3a" filter="url(#glow)"/>
  <circle cx="799.7356427943082" cy="225.250646536408" r="2.38123086817557" fill="#e8e0d4" filter="url(#glow)"/>
  <circle cx="729.816898688487" cy="318.09554168273195" r="0.5552773026927484" fill="#d64a3a" filter="url(#glow)"/>
  <circle cx="792.3685542763784" cy="214.88293028759023" r="2.1015821027290427" fill="#d64a3a" filter="url(#glow)"/>
  <circle cx="832.4092538411753" cy="292.2440528021131" r="1.6689008931315779" fill="#d64a3a" filter="url(#glow)"/>
  <circle cx="824.1485263439696" cy="318.79080827285105" r="1.1773428347228965" fill="#d64a3a" filter="url(#glow)"/>
  <circle cx="817.8738796129753" cy="221.61536488733964" r="2.16141373323238" fill="#d64a3a" filter="url(#glow)"/>
  <circle cx="852.4338339757728" cy="249.0410547895104" r="1.688934945999144" fill="#d64a3a" filter="url(#glow)"/>
  <circle cx="863.3124371259293" cy="181.27481672932942" r="0.663922155833093" fill="#d64a3a" filter="url(#glow)"/>
  <circle cx="861.3511840209478" cy="218.09300418844785" r="1.2711954704025588" fill="#d64a3a" filter="url(#glow)"/>
  <circle cx="713.8423294271678" cy="306.30549570972346" r="0.5" fill="#d64a3a" filter="url(#glow)"/>
  <circle cx="827.0479219966624" cy="241.7259894730329" r="2.292871416158148" fill="#e8e0d4" filter="url(#glow)"/>
  <circle cx="778.3734550061985" cy="312.5214912432595" r="1.3460947133281222" fill="#d64a3a" filter="url(#glow)"/>
  <circle cx="757.2895930685215" cy="276.48483177973856" r="1.743610038977365" fill="#d64a3a" filter="url(#glow)"/>
  <circle cx="820.5771899444366" cy="330.00041465455274" r="0.934889971013984" fill="#d64a3a" filter="url(#glow)"/>
  <circle cx="916.0561154735034" cy="271.3368271724918" r="0.5" fill="#d64a3a" filter="url(#glow)"/>
  <circle cx="751.2180107149421" cy="242.201090787132" r="1.7649631929781255" fill="#d64a3a" filter="url(#glow)"/>
  <circle cx="869.0973395551555" cy="316.8986102307588" r="0.5955943582135212" fill="#d64a3a" filter="url(#glow)"/>
  <circle cx="691.9919182913202" cy="286.3271301323424" r="0.5" fill="#d64a3a" filter="url(#glow)"/>
  <circle cx="696.8696256900615" cy="254.9604462435701" r="0.5" fill="#d64a3a" filter="url(#glow)"/>
  <circle cx="785.5583027625624" cy="234.8654236505413" r="2.4770169575075793" fill="#e8e0d4" filter="url(#glow)"/>
  <circle cx="784.0420102346994" cy="252.85919936374484" r="2.5946972903255854" fill="#e8e0d4" filter="url(#glow)"/>
  <circle cx="766.8159444650265" cy="239.93116883522978" r="2.1330502816004655" fill="#d64a3a" filter="url(#glow)"/>
  <circle cx="814.077813094866" cy="189.80270150982886" r="1.4544621552982073" fill="#d64a3a" filter="url(#glow)"/>
  <circle cx="735.9036886206159" cy="211.74334586036673" r="1.1338695251934943" fill="#d64a3a" filter="url(#glow)"/>
  <circle cx="753.3169247506925" cy="199.24289347574728" r="1.275979738835915" fill="#d64a3a" filter="url(#glow)"/>
  <circle cx="830.5534408042049" cy="307.4313379676489" r="1.373679128037312" fill="#d64a3a" filter="url(#glow)"/>
  <circle cx="740.523321267263" cy="211.28653071657126" r="1.2258438595637589" fill="#d64a3a" filter="url(#glow)"/>
  <circle cx="810.7768253068207" cy="326.18557960693875" r="1.0763994528913152" fill="#d64a3a" filter="url(#glow)"/>
  <circle cx="877.0757312284185" cy="158.76061974942593" r="0.5" fill="#d64a3a" filter="url(#glow)"/>
  <circle cx="720.6202978361006" cy="275.9460009994411" r="0.9121883341204517" fill="#d64a3a" filter="url(#glow)"/>
  <circle cx="845.6265381630392" cy="280.50229651640865" r="1.627918762081171" fill="#d64a3a" filter="url(#glow)"/>
  <circle cx="800.0343647213701" cy="327.4236652043629" r="1.064408179229904" fill="#d64a3a" filter="url(#glow)"/>
  <circle cx="826.9768217294252" cy="265.18342029204706" r="2.2260954668104516" fill="#d64a3a" filter="url(#glow)"/>
  <circle cx="701.0158862357723" cy="305.6476620219355" r="0.5" fill="#d64a3a" filter="url(#glow)"/>
  <circle cx="868.1400206259036" cy="323.0863738103212" r="0.5019156780093748" fill="#d64a3a" filter="url(#glow)"/>
  <circle cx="793.8280590654936" cy="245.2275100658824" r="2.804952705943068" fill="#e8e0d4" filter="url(#glow)"/>
  <circle cx="787.6586113193584" cy="278.9634867301056" r="2.2129193822534474" fill="#d64a3a" filter="url(#glow)"/>
  <circle cx="805.1879211573756" cy="237.53898491324645" r="2.6625542423890125" fill="#e8e0d4" filter="url(#glow)"/>
  <circle cx="844.7784716363386" cy="236.22443174449265" r="1.8287619256614274" fill="#d64a3a" filter="url(#glow)"/>
  <circle cx="780.5869538658781" cy="326.68486157323946" r="1.0224013370516054" fill="#d64a3a" filter="url(#glow)"/>
  <circle cx="777.4530899629581" cy="201.46982100709118" r="1.6621982991437432" fill="#d64a3a" filter="url(#glow)"/>
  <circle cx="816.3569504342339" cy="361.36040512286667" r="0.5" fill="#d64a3a" filter="url(#glow)"/>
  <circle cx="808.4446031265082" cy="246.79182213402788" r="2.7741630466686944" fill="#e8e0d4" filter="url(#glow)"/>
  <circle cx="835.9739590696915" cy="265.2640464554148" r="2.0230414398051138" fill="#d64a3a" filter="url(#glow)"/>
  <circle cx="813.7699001893175" cy="265.476648870449" r="2.482109560643532" fill="#e8e0d4" filter="url(#glow)"/>
  <circle cx="821.343072534184" cy="160.35610155697753" r="0.6962591192174026" fill="#d64a3a" filter="url(#glow)"/>
  <circle cx="805.2516725624256" cy="259.05854615047065" r="2.738230393447859" fill="#e8e0d4" filter="url(#glow)"/>
  <circle cx="828.0876970307158" cy="266.63031202379847" r="2.183955423054989" fill="#d64a3a" filter="url(#glow)"/>
  <circle cx="884.0043571851802" cy="213.6612419554679" r="0.7118187677881611" fill="#d64a3a" filter="url(#glow)"/>
  <circle cx="768.7676682163146" cy="256.39467458423275" r="2.2029937219175926" fill="#d64a3a" filter="url(#glow)"/>
  <circle cx="747.5989011567058" cy="256.59345078526474" r="1.6796428624131654" fill="#d64a3a" filter="url(#glow)"/>
  <circle cx="784.8829428839917" cy="223.06959142487457" r="2.2279198868187944" fill="#d64a3a" filter="url(#glow)"/>
  <circle cx="829.1982106486928" cy="267.40973074157483" r="2.150134485058234" fill="#d64a3a" filter="url(#glow)"/>
  <circle cx="818.1400492698617" cy="256.8482213116328" r="2.515258108212401" fill="#e8e0d4" filter="url(#glow)"/>
  <circle cx="828.7048330745137" cy="189.02807019224215" r="1.3152255962744888" fill="#d64a3a" filter="url(#glow)"/>
  <circle cx="830.7439535405747" cy="329.1456367339681" r="0.8773214896430006" fill="#d64a3a" filter="url(#glow)"/>
  <circle cx="857.9205140453528" cy="292.81767907507697" r="1.1992814648288672" fill="#d64a3a" filter="url(#glow)"/>
  <circle cx="814.566257512949" cy="291.9305969486837" r="1.8902841528102496" fill="#d64a3a" filter="url(#glow)"/>
  <circle cx="826.2955080911695" cy="323.81773979110534" r="1.04096445067348" fill="#d64a3a" filter="url(#glow)"/>
  <circle cx="776.7274371207039" cy="235.2863802926473" r="2.3116583388936736" fill="#e8e0d4" filter="url(#glow)"/>
  <circle cx="842.2100831604988" cy="213.18527971234394" r="1.5997735115626428" fill="#d64a3a" filter="url(#glow)"/>
  <circle cx="845.7439380340437" cy="249.21408875114489" r="1.8562327806341266" fill="#d64a3a" filter="url(#glow)"/>
  <circle cx="852.7622017878069" cy="235.1985068077917" r="1.6300241475174997" fill="#d64a3a" filter="url(#glow)"/>
  <circle cx="894.3420005454044" cy="290.7089046007721" r="0.5" fill="#d64a3a" filter="url(#glow)"/>
  <circle cx="770.2449223276554" cy="264.994052429639" r="2.1670135597029425" fill="#d64a3a" filter="url(#glow)"/>
  <circle cx="697.2946216905486" cy="247.2020643799418" r="0.5" fill="#d64a3a" filter="url(#glow)"/>
  <circle cx="802.426798883234" cy="262.6495191065693" r="2.6779948695603517" fill="#e8e0d4" filter="url(#glow)"/>
  <circle cx="746.9436393115026" cy="274.9726221894615" r="1.534008597286993" fill="#d64a3a" filter="url(#glow)"/>
  <circle cx="847.1412417719434" cy="222.28364520505747" r="1.6328649941117832" fill="#d64a3a" filter="url(#glow)"/>
  <circle cx="794.1994737588675" cy="147.44947085740586" r="0.5" fill="#d64a3a" filter="url(#glow)"/>
  <circle cx="844.1745327856055" cy="222.89939787203892" r="1.7043746725700888" fill="#d64a3a" filter="url(#glow)"/>
  <circle cx="761.7076073398453" cy="288.39726851963087" r="1.6443042456435633" fill="#d64a3a" filter="url(#glow)"/>
  <circle cx="809.7641357875136" cy="262.5535517226134" r="2.6024056648657656" fill="#e8e0d4" filter="url(#glow)"/>
  <circle cx="740.9976265699501" cy="318.29434647947323" r="0.743703555680598" fill="#d64a3a" filter="url(#glow)"/>
  <circle cx="821.2173300505667" cy="284.08084541562" r="1.996356911447704" fill="#d64a3a" filter="url(#glow)"/>
  <circle cx="753.6670784334066" cy="277.1580789309427" r="1.65735781197218" fill="#d64a3a" filter="url(#glow)"/>
  <circle cx="809.0831798785184" cy="221.89090708962814" r="2.2614942193229632" fill="#e8e0d4" filter="url(#glow)"/>
  <circle cx="812.4913108438385" cy="202.9800042546225" r="1.783726786836959" fill="#d64a3a" filter="url(#glow)"/>
  <circle cx="866.7671024573451" cy="289.25066628998195" r="1.06375673423425" fill="#d64a3a" filter="url(#glow)"/>
  <circle cx="787.7914054890648" cy="196.99685907768864" r="1.6402245756277358" fill="#d64a3a" filter="url(#glow)"/>
  <circle cx="839.4051449807957" cy="299.4465410255412" r="1.4193106981549037" fill="#d64a3a" filter="url(#glow)"/>
  <circle cx="798.724192955589" cy="310.95634900802366" r="1.4757575307709085" fill="#d64a3a" filter="url(#glow)"/>
  <circle cx="699.5551349684483" cy="276.3882113287823" r="0.5" fill="#d64a3a" filter="url(#glow)"/>
  <circle cx="860.9746334808682" cy="208.58387902359604" r="1.1572437415554755" fill="#d64a3a" filter="url(#glow)"/>
  <circle cx="752.863946987106" cy="236.882121688833" r="1.7768160847043135" fill="#d64a3a" filter="url(#glow)"/>
  <circle cx="832.2101522292637" cy="255.2464657278639" r="2.184134160360145" fill="#d64a3a" filter="url(#glow)"/>
  <circle cx="816.0968551063315" cy="245.90686540811762" r="2.5847722800216313" fill="#e8e0d4" filter="url(#glow)"/>
  <circle cx="829.8259184195745" cy="304.7923558262257" r="1.440395148892107" fill="#d64a3a" filter="url(#glow)"/>
  <circle cx="742.5066498886067" cy="213.75092045536198" r="1.3008308878188544" fill="#d64a3a" filter="url(#glow)"/>
  <circle cx="779.8109604879363" cy="304.8545484805652" r="1.538703742086682" fill="#d64a3a" filter="url(#glow)"/>
  <circle cx="796.6222436327369" cy="267.1783027473474" r="2.562319092148665" fill="#e8e0d4" filter="url(#glow)"/>
  <circle cx="889.2465508777216" cy="281.37132484058475" r="0.6350070209111567" fill="#d64a3a" filter="url(#glow)"/>
  <circle cx="824.0609828367138" cy="292.876935881979" r="1.7708329736931656" fill="#d64a3a" filter="url(#glow)"/>
  <circle cx="768.0038838592142" cy="305.83725876996834" r="1.3911279348874834" fill="#d64a3a" filter="url(#glow)"/>
  <circle cx="888.9150462644735" cy="259.04239932302715" r="0.7656585928776254" fill="#d64a3a" filter="url(#glow)"/>
  <circle cx="744.2575976398058" cy="222.0296547969236" r="1.4408424486952411" fill="#d64a3a" filter="url(#glow)"/>
  <circle cx="708.3093811692663" cy="204.888859965188" r="0.5" fill="#d64a3a" filter="url(#glow)"/>
  <circle cx="746.0813393648615" cy="166.09542349149046" r="0.5066087446311744" fill="#d64a3a" filter="url(#glow)"/>
  <circle cx="819.7087493084085" cy="249.64566673406551" r="2.507201644074221" fill="#e8e0d4" filter="url(#glow)"/>
  <circle cx="871.2588267305439" cy="298.94353303456785" r="0.8387952126013847" fill="#d64a3a" filter="url(#glow)"/>
  <circle cx="759.5345945803674" cy="288.2138335078161" r="1.6085650151870374" fill="#d64a3a" filter="url(#glow)"/>
  <circle cx="828.2733931337663" cy="231.47260975726738" r="2.1549227296782982" fill="#d64a3a" filter="url(#glow)"/>
  <circle cx="856.6802952823227" cy="281.3437185339757" r="1.3807631880982505" fill="#d64a3a" filter="url(#glow)"/>
  <circle cx="773.4440302254087" cy="280.0786156685763" r="1.9968977335264713" fill="#d64a3a" filter="url(#glow)"/>
  <circle cx="862.9332768351828" cy="221.22368601541362" r="1.2699939343037585" fill="#d64a3a" filter="url(#glow)"/>
  <circle cx="800.398709007542" cy="281.98055601355134" r="2.200423967104836" fill="#d64a3a" filter="url(#glow)"/>
  <circle cx="815.3198201473748" cy="286.952954815591" r="1.9999319526430273" fill="#d64a3a" filter="url(#glow)"/>
  <circle cx="818.3395011328782" cy="328.22793456117154" r="0.9912772952212614" fill="#d64a3a" filter="url(#glow)"/>
  <circle cx="872.1414223113408" cy="219.6680577378416" r="1.0435345111499337" fill="#d64a3a" filter="url(#glow)"/>
  <circle cx="840.2259606519082" cy="291.71166176669476" r="1.5512957000935264" fill="#d64a3a" filter="url(#glow)"/>
  <circle cx="772.4066679955772" cy="179.9082076795349" r="1.1168093362258975" fill="#d64a3a" filter="url(#glow)"/>
  <circle cx="791.4136087008686" cy="171.29819844712082" r="1.0207798753027473" fill="#d64a3a" filter="url(#glow)"/>
  <circle cx="791.0739521012572" cy="321.5993452297688" r="1.1961602467891121" fill="#d64a3a" filter="url(#glow)"/>
  <circle cx="869.2538839281978" cy="226.20449932926707" r="1.169302337339816" fill="#d64a3a" filter="url(#glow)"/>
  <circle cx="873.1332836760093" cy="190.8447497259012" r="0.6484286083255251" fill="#d64a3a" filter="url(#glow)"/>
  <circle cx="804.3114058697299" cy="266.3016073861358" r="2.5784473461525987" fill="#e8e0d4" filter="url(#glow)"/>
  <circle cx="769.0779882109472" cy="315.9880280328139" r="1.1781550119552997" fill="#d64a3a" filter="url(#glow)"/>
  <circle cx="858.1486659986156" cy="227.74364325641125" r="1.4434387313463133" fill="#d64a3a" filter="url(#glow)"/>
  <circle cx="774.9692694643419" cy="171.2313904303302" r="0.9337486653531526" fill="#d64a3a" filter="url(#glow)"/>
  <circle cx="779.4606953659063" cy="242.22796126535485" r="2.4509851886418916" fill="#e8e0d4" filter="url(#glow)"/>
  <circle cx="753.1191068568008" cy="343.93565080975" r="0.5" fill="#d64a3a" filter="url(#glow)"/>
  <circle cx="816.8569992339061" cy="331.6784947482746" r="0.9150037578697185" fill="#d64a3a" filter="url(#glow)"/>
  <circle cx="741.7041886162892" cy="267.89570592344865" r="1.4754800109166049" fill="#d64a3a" filter="url(#glow)"/>
  <circle cx="766.6713263935451" cy="212.97900226728126" r="1.7546700343153099" fill="#d64a3a" filter="url(#glow)"/>
  <circle cx="773.6002023424443" cy="174.74234710231534" r="1.0061557802782914" fill="#d64a3a" filter="url(#glow)"/>
  <circle cx="766.7011752552651" cy="274.6403734879845" r="1.9643963912867224" fill="#d64a3a" filter="url(#glow)"/>
  <circle cx="726.1638006881637" cy="302.1712607999367" r="0.739797467278621" fill="#d64a3a" filter="url(#glow)"/>
  <circle cx="780.032395903108" cy="305.4730595159146" r="1.5260670076657097" fill="#d64a3a" filter="url(#glow)"/>
  <circle cx="864.1501610738106" cy="280.3166635058628" r="1.2261723498456152" fill="#d64a3a" filter="url(#glow)"/>
  <circle cx="763.264591017871" cy="219.68925837641038" r="1.8093511929266537" fill="#d64a3a" filter="url(#glow)"/>
  <circle cx="868.1882724770123" cy="200.28456816499303" r="0.8903103507357266" fill="#d64a3a" filter="url(#glow)"/>
  <circle cx="800.2987302503367" cy="271.26414965265457" r="2.468343802224504" fill="#e8e0d4" filter="url(#glow)"/>
  <circle cx="840.3798866556481" cy="230.6201929159137" r="1.8802589113607033" fill="#d64a3a" filter="url(#glow)"/>
  <circle cx="798.106556588809" cy="285.044956366341" r="2.122598262385565" fill="#d64a3a" filter="url(#glow)"/>
  <circle cx="746.5795227453143" cy="287.370233647841" r="1.3701453759206348" fill="#d64a3a" filter="url(#glow)"/>
  <circle cx="794.7664141827307" cy="302.85390998795526" r="1.6721901911602703" fill="#d64a3a" filter="url(#glow)"/>
  <circle cx="826.4324831775139" cy="267.4665349344953" r="2.2079472833408205" fill="#d64a3a" filter="url(#glow)"/>
  <circle cx="800" cy="250" r="8" fill="#e8e0d4" filter="url(#glow)"/>
</g>
</svg>